<svg width="60" height="60" viewBox="0 0 60 60" fill="none" xmlns="http://www.w3.org/2000/svg">
<path d="M30 5.00244C40.0103 5.00244 48.125 13.1173 48.125 23.1274C48.125 28.3675 45.8733 33.1767 41.4673 37.4822C41.275 37.6702 41.126 37.8965 41.0295 38.1455L40.951 38.4012L38.1232 50.6402C37.5665 53.05 35.5087 54.7957 33.0755 54.9825L32.6425 54.999H27.3583C24.8844 54.999 22.7198 53.3862 21.9907 51.057L21.8772 50.6387L19.0533 38.4017C18.9726 38.052 18.7932 37.7327 18.5364 37.482C14.3379 33.3815 12.0945 28.8242 11.8903 23.8731L11.875 23.1274L11.8847 22.5291C12.2004 12.7959 20.19 5.00244 30 5.00244ZM35.2875 46.2475H24.71L25.5312 49.7955C25.7077 50.5612 26.3393 51.126 27.1003 51.2312L27.3583 51.249H32.6425C33.4283 51.249 34.1203 50.761 34.3942 50.0435L34.4695 49.796L35.2875 46.2475ZM30 8.75244C22.2455 8.75244 15.9251 14.8925 15.6354 22.576L15.625 23.1274L15.6418 23.82C15.8322 27.7282 17.643 31.3677 21.1565 34.7992C21.8169 35.4442 22.3066 36.24 22.5855 37.115L22.7073 37.5587L23.845 42.4975H36.1525L37.2972 37.557C37.5047 36.6585 37.9295 35.8272 38.531 35.1347L38.8465 34.8002C42.358 31.3687 44.168 27.729 44.3582 23.8201L44.375 23.1274L44.3645 22.576C44.0747 14.8925 37.7545 8.75244 30 8.75244Z" fill="#FBBC04"/>
</svg>
