<svg width="111" height="111" viewBox="0 0 111 111" fill="none" xmlns="http://www.w3.org/2000/svg">
<path d="M28.5 82.5L28.5 108.5L2.5 82.5L28.5 82.5Z" fill="#2F80ED" stroke="#2F80ED" stroke-width="2" stroke-linecap="round"/>
<path d="M28.5 55.5L28.5 81.5L2.5 55.5L28.5 55.5Z" fill="#2F80ED" stroke="#2F80ED" stroke-width="2" stroke-linecap="round"/>
<path d="M28.5 28.5L28.5 54.5L2.5 28.5L28.5 28.5Z" fill="#2F80ED" stroke="#2F80ED" stroke-width="2" stroke-linecap="round"/>
<path d="M28.5 1.5L28.5 27.5L2.5 1.5L28.5 1.5Z" fill="#2F80ED" stroke="#2F80ED" stroke-width="2" stroke-linecap="round"/>
<path d="M55.5 82.5L55.5 108.5L29.5 82.5L55.5 82.5Z" fill="#2F80ED" stroke="#2F80ED" stroke-width="2" stroke-linecap="round"/>
<path d="M55.5 55.5L55.5 81.5L29.5 55.5L55.5 55.5Z" fill="#2F80ED" stroke="#2F80ED" stroke-width="2" stroke-linecap="round"/>
<path d="M55.5 28.5L55.5 54.5L29.5 28.5L55.5 28.5Z" fill="#2F80ED" stroke="#2F80ED" stroke-width="2" stroke-linecap="round"/>
<path d="M55.5 1.5L55.5 27.5L29.5 1.5L55.5 1.5Z" fill="#2F80ED" stroke="#2F80ED" stroke-width="2" stroke-linecap="round"/>
<path d="M82.5 82.5L82.5 108.5L56.5 82.5L82.5 82.5Z" fill="#2F80ED" stroke="#2F80ED" stroke-width="2" stroke-linecap="round"/>
<path d="M82.5 55.5L82.5 81.5L56.5 55.5L82.5 55.5Z" fill="#2F80ED" stroke="#2F80ED" stroke-width="2" stroke-linecap="round"/>
<path d="M82.5 28.5L82.5 54.5L56.5 28.5L82.5 28.5Z" fill="#2F80ED" stroke="#2F80ED" stroke-width="2" stroke-linecap="round"/>
<path d="M82.5 1.50001L82.5 27.5L56.5 1.50001L82.5 1.50001Z" fill="#2F80ED" stroke="#2F80ED" stroke-width="2" stroke-linecap="round"/>
<path d="M109.5 82.5L109.5 108.5L83.5 82.5L109.5 82.5Z" fill="#2F80ED" stroke="#2F80ED" stroke-width="2" stroke-linecap="round"/>
<path d="M109.5 55.5L109.5 81.5L83.5 55.5L109.5 55.5Z" fill="#2F80ED" stroke="#2F80ED" stroke-width="2" stroke-linecap="round"/>
<path d="M109.5 28.5L109.5 54.5L83.5 28.5L109.5 28.5Z" fill="#2F80ED" stroke="#2F80ED" stroke-width="2" stroke-linecap="round"/>
<path d="M109.5 1.50001L109.5 27.5L83.5 1.50001L109.5 1.50001Z" fill="#2F80ED" stroke="#2F80ED" stroke-width="2" stroke-linecap="round"/>
</svg>
