<svg width="62" height="62" viewBox="0 0 62 62" fill="none" xmlns="http://www.w3.org/2000/svg">
<path d="M39.7575 13.4592L43.4 20.7442C43.8908 21.7517 45.2083 22.7075 46.3191 22.9142L52.9067 23.9992C57.1175 24.6967 58.0992 27.745 55.0767 30.7934L49.9358 35.9342C49.0833 36.7867 48.5925 38.4659 48.8767 39.68L50.3491 46.035C51.5116 51.0467 48.825 53.01 44.4075 50.375L38.2333 46.7067C37.1225 46.035 35.2625 46.035 34.1517 46.7067L27.9775 50.375C23.56 52.9842 20.8733 51.0467 22.0358 46.035L23.5083 39.68C23.7925 38.4917 23.3017 36.8125 22.4492 35.9342L17.3084 30.7934C14.2859 27.7709 15.2675 24.7225 19.4783 23.9992L26.0658 22.9142C27.1767 22.7334 28.4942 21.7517 28.985 20.7442L32.6275 13.4592C34.565 9.50669 37.7684 9.50669 39.7575 13.4592Z" fill="#2F80ED"/>
<path opacity="0.2" d="M20.6666 14.8542H5.16663C4.10746 14.8542 3.22913 13.9759 3.22913 12.9167C3.22913 11.8575 4.10746 10.9792 5.16663 10.9792H20.6666C21.7258 10.9792 22.6041 11.8575 22.6041 12.9167C22.6041 13.9759 21.7258 14.8542 20.6666 14.8542Z" fill="#2F80ED"/>
<path opacity="0.2" d="M12.9166 51.0208H5.16663C4.10746 51.0208 3.22913 50.1425 3.22913 49.0833C3.22913 48.0241 4.10746 47.1458 5.16663 47.1458H12.9166C13.9758 47.1458 14.8541 48.0241 14.8541 49.0833C14.8541 50.1425 13.9758 51.0208 12.9166 51.0208Z" fill="#2F80ED"/>
<path opacity="0.2" d="M7.74996 32.9375H5.16663C4.10746 32.9375 3.22913 32.0592 3.22913 31C3.22913 29.9408 4.10746 29.0625 5.16663 29.0625H7.74996C8.80913 29.0625 9.68746 29.9408 9.68746 31C9.68746 32.0592 8.80913 32.9375 7.74996 32.9375Z" fill="#2F80ED"/>
</svg>
