<?xml version="1.0" encoding="utf-8"?><svg viewBox="0 0 34 28" xmlns="http://www.w3.org/2000/svg" xmlns:xlink="http://www.w3.org/1999/xlink"><style>:root>svg{display:none}:root>svg:target{display:block}</style><svg fill="none" viewBox="0 0 10 10" id="arrow" xmlns="http://www.w3.org/2000/svg"><path d="m1 9 8-8m0 0H1m8 0v8"/></svg><svg fill="none" viewBox="0 0 12 12" id="arrow-down" xmlns="http://www.w3.org/2000/svg"><path d="M9.96 4.475 6.7 7.735a.993.993 0 0 1-1.4 0l-3.26-3.26"/></svg><svg fill="none" viewBox="0 0 10 10" id="arrow2" xmlns="http://www.w3.org/2000/svg"><path d="m1 9 8-8m0 0H1m8 0v8" stroke="#000" stroke-width="1.5"/></svg><svg fill="none" viewBox="0 0 24 24" id="check" xmlns="http://www.w3.org/2000/svg"><path d="M9 22h6c5 0 7-2 7-7V9c0-5-2-7-7-7H9C4 2 2 4 2 9v6c0 5 2 7 7 7Z" stroke="#373A44" stroke-width="1.5" stroke-linecap="round" stroke-linejoin="round"/><path d="m7.75 12 2.83 2.83 5.67-5.66" stroke="#373A44" stroke-width="1.5" stroke-linecap="round" stroke-linejoin="round"/></svg><svg fill="none" viewBox="0 0 16 16" id="clock" xmlns="http://www.w3.org/2000/svg"><path d="M14.667 8A6.67 6.67 0 0 1 8 14.667 6.67 6.67 0 0 1 1.333 8 6.67 6.67 0 0 1 8 1.333 6.67 6.67 0 0 1 14.667 8Z"/><path d="M10.473 10.12 8.407 8.887c-.36-.214-.654-.727-.654-1.147V5.007"/></svg><svg fill="none" viewBox="0 0 18 18" id="close" xmlns="http://www.w3.org/2000/svg"><path d="m1.929 1.929 14.142 14.142m-14.142 0L16.071 1.93"/></svg><svg fill="none" viewBox="0 0 16 16" id="eye" xmlns="http://www.w3.org/2000/svg"><path d="M10.387 8A2.384 2.384 0 0 1 8 10.387 2.384 2.384 0 0 1 5.613 8 2.384 2.384 0 0 1 8 5.613 2.384 2.384 0 0 1 10.387 8Z"/><path d="M8 13.513c2.353 0 4.547-1.386 6.073-3.786.6-.94.6-2.52 0-3.46C12.547 3.867 10.353 2.48 8 2.48S3.453 3.867 1.927 6.267c-.6.94-.6 2.52 0 3.46 1.526 2.4 3.72 3.786 6.073 3.786Z"/></svg><svg viewBox="0 0 28 28" id="facebook" xmlns="http://www.w3.org/2000/svg"><path d="M16.49 2a5.993 5.993 0 0 0-5.992 5.992v3.337H7.292A.292.292 0 0 0 7 11.62v4.406c0 .16.13.291.292.291h3.206v9.037c0 .161.13.292.292.292h4.405c.161 0 .292-.13.292-.292v-9.037h3.235c.134 0 .25-.09.283-.22l1.1-4.406a.291.291 0 0 0-.282-.362h-4.336V7.992a1.004 1.004 0 0 1 1.004-1.004h3.369c.16 0 .291-.13.291-.291V2.292A.292.292 0 0 0 19.86 2h-3.37Z"/></svg><svg viewBox="0 0 28 28" id="instagram" xmlns="http://www.w3.org/2000/svg"><path d="M18.888 2.333H9.112c-4.247 0-6.779 2.532-6.779 6.779v9.765c0 4.258 2.532 6.79 6.779 6.79h9.765c4.246 0 6.778-2.532 6.778-6.779V9.112c.012-4.247-2.52-6.779-6.767-6.779ZM14 18.527A4.531 4.531 0 0 1 9.473 14 4.531 4.531 0 0 1 14 9.473 4.531 4.531 0 0 1 18.527 14 4.531 4.531 0 0 1 14 18.527Zm6.907-10.5c-.059.14-.14.268-.245.385a1.348 1.348 0 0 1-.385.245 1.155 1.155 0 0 1-1.272-.245 1.349 1.349 0 0 1-.245-.385 1.162 1.162 0 0 1-.093-.444c0-.151.035-.303.093-.443.058-.152.14-.268.245-.385a1.165 1.165 0 0 1 1.05-.315.704.704 0 0 1 .222.07c.07.023.14.058.21.105.058.035.116.093.175.14.105.117.186.233.245.385.058.14.093.292.093.443 0 .152-.035.304-.093.444Z"/></svg><svg fill="none" viewBox="0 0 14 16" id="list" xmlns="http://www.w3.org/2000/svg"><g clip-path="url(#ja)"><path d="M7 .973C7.238 4.75 10.237 7.76 14 8c-3.763.239-6.762 3.25-7 7.027C6.762 11.25 3.763 8.24 0 8c3.763-.239 6.762-3.25 7-7.027Z" fill="#2F80ED"/></g><defs><clipPath id="ja"><path fill="#fff" transform="translate(0 .973)" d="M0 0h14v14.055H0z"/></clipPath></defs></svg><svg fill="none" viewBox="0 0 16 16" id="mail" xmlns="http://www.w3.org/2000/svg"><path d="M11.334 13.667H4.667c-2 0-3.333-1-3.333-3.334V5.667c0-2.334 1.333-3.334 3.333-3.334h6.667c2 0 3.333 1 3.333 3.334v4.666c0 2.334-1.333 3.334-3.333 3.334Z"/><path d="M11.333 6 9.246 7.667c-.686.546-1.813.546-2.5 0L4.667 6"/></svg><svg fill="none" viewBox="0 0 34 14" id="menu" xmlns="http://www.w3.org/2000/svg"><path d="M1 7h32M1 1h32M1 13h32"/></svg><svg fill="none" viewBox="0 0 24 24" id="nav" xmlns="http://www.w3.org/2000/svg"><path d="M9.57 5.93 3.5 12l6.07 6.07M20.5 12H3.67"/></svg><svg fill="none" viewBox="0 0 16 16" id="phone" xmlns="http://www.w3.org/2000/svg"><path d="M14.647 12.22c0 .24-.054.487-.167.727a2.75 2.75 0 0 1-.453.68c-.327.36-.687.62-1.094.786a3.35 3.35 0 0 1-1.3.254c-.68 0-1.406-.16-2.173-.487a11.703 11.703 0 0 1-2.293-1.32 19.172 19.172 0 0 1-2.187-1.867 18.948 18.948 0 0 1-1.86-2.18c-.547-.76-.987-1.52-1.307-2.273-.32-.76-.48-1.487-.48-2.18 0-.453.08-.887.24-1.287.16-.406.414-.78.767-1.113.427-.42.893-.627 1.387-.627.186 0 .373.04.54.12.173.08.326.2.446.374l1.547 2.18c.12.166.207.32.267.466.06.14.093.28.093.407 0 .16-.047.32-.14.473a2.268 2.268 0 0 1-.373.474l-.507.526a.357.357 0 0 0-.107.267c0 .053.007.1.02.153.02.054.04.094.054.134.12.22.326.506.62.853.3.347.62.7.966 1.053.36.354.707.68 1.06.98.347.294.634.494.86.614.034.013.074.033.12.053a.46.46 0 0 0 .167.027c.113 0 .2-.04.273-.114l.507-.5c.167-.166.327-.293.48-.373a.888.888 0 0 1 .473-.14c.127 0 .26.027.407.087.147.06.3.146.467.26l2.206 1.566c.174.12.294.26.367.427.067.167.107.333.107.52Z"/></svg><svg fill="none" viewBox="0 0 16 16" id="profile" xmlns="http://www.w3.org/2000/svg"><path d="M8.107 7.247a1.211 1.211 0 0 0-.22 0A2.947 2.947 0 0 1 5.04 4.293c0-1.633 1.32-2.96 2.96-2.96a2.957 2.957 0 0 1 .107 5.913ZM4.773 9.707c-1.613 1.08-1.613 2.84 0 3.913 1.834 1.227 4.84 1.227 6.674 0 1.613-1.08 1.613-2.84 0-3.913-1.827-1.22-4.834-1.22-6.674 0Z"/></svg><svg fill="none" viewBox="0 0 24 24" id="square" xmlns="http://www.w3.org/2000/svg"><path d="M9 22h6c5 0 7-2 7-7V9c0-5-2-7-7-7H9C4 2 2 4 2 9v6c0 5 2 7 7 7Z" stroke="#373A44" stroke-width="1.5" stroke-linecap="round" stroke-linejoin="round"/></svg><svg viewBox="0 0 28 28" id="telegram" xmlns="http://www.w3.org/2000/svg"><path fill-rule="evenodd" clip-rule="evenodd" d="M21.564 23.088v-.002l.02-.05 3.5-17.64V5.34c0-.44-.163-.824-.517-1.054-.309-.201-.664-.216-.914-.197-.263.02-.512.086-.684.141a3.73 3.73 0 0 0-.28.101l-.015.007L3.167 11.99l-.005.002a2.017 2.017 0 0 0-.174.072c-.105.047-.25.121-.398.222-.251.172-.728.578-.648 1.222.067.534.435.873.683 1.048a2.407 2.407 0 0 0 .507.273l.013.005.008.003 3.412 1.149c-.011.214.01.432.067.648l1.71 6.484a1.75 1.75 0 0 0 3.306.23l2.67-2.855 4.583 3.515.065.028c.417.182.806.24 1.162.19.355-.048.637-.197.85-.366a2.037 2.037 0 0 0 .572-.74l.01-.02.002-.008.002-.003Zm-13.24-6.9a.35.35 0 0 1 .15-.385L20.05 8.452s.681-.414.657 0c0 0 .122.073-.243.413-.346.323-8.25 7.955-9.05 8.727a.324.324 0 0 0-.09.157l-1.29 4.923-1.71-6.485Z"/></svg><svg viewBox="0 0 18 18" id="viber" xmlns="http://www.w3.org/2000/svg"><path fill-rule="evenodd" clip-rule="evenodd" d="M12.507 1.97a16.425 16.425 0 0 0-7.166 0l-.254.057a3.679 3.679 0 0 0-2.763 2.686 14.6 14.6 0 0 0 0 7.182 3.679 3.679 0 0 0 2.583 2.64l.348 2.082a.375.375 0 0 0 .62.218l2.048-1.833a16.425 16.425 0 0 0 4.584-.365l.255-.057a3.679 3.679 0 0 0 2.763-2.685 14.6 14.6 0 0 0 0-7.182 3.679 3.679 0 0 0-2.764-2.686l-.254-.056ZM5.974 4.652a.616.616 0 0 0-.403.08h-.01a3.089 3.089 0 0 0-.751.617c-.18.208-.278.418-.303.62a.838.838 0 0 0 .03.357l.014.008c.202.594.466 1.166.79 1.705a10.03 10.03 0 0 0 1.522 2.081l.018.026.028.02.017.021.021.018a10.172 10.172 0 0 0 2.087 1.53c.866.472 1.392.694 1.707.787v.005c.093.028.177.04.262.04.269-.019.523-.128.723-.31.243-.216.449-.47.61-.753v-.005c.151-.284.1-.553-.118-.736a9.081 9.081 0 0 0-1.41-1.012c-.336-.182-.677-.072-.815.113l-.295.371c-.151.185-.426.16-.426.16l-.008.004C7.216 9.875 6.67 7.801 6.67 7.801s-.026-.282.164-.425l.369-.298c.177-.143.3-.484.11-.82a8.856 8.856 0 0 0-1.01-1.41.561.561 0 0 0-.33-.198v.001Zm3.46-.901a.375.375 0 1 0 0 .75c.949 0 1.737.31 2.36.904.32.325.57.71.733 1.13.165.423.24.874.22 1.325a.375.375 0 1 0 .75.032 4.02 4.02 0 0 0-.27-1.628 4.082 4.082 0 0 0-.904-1.39l-.008-.008c-.772-.739-1.751-1.115-2.88-1.115ZM9.41 4.983a.375.375 0 1 0 0 .75h.012c.684.048 1.182.277 1.532.651.357.386.542.865.528 1.457a.375.375 0 0 0 .75.018c.018-.779-.232-1.45-.729-1.985v-.001c-.508-.545-1.204-.833-2.043-.889h-.05ZM9.395 6.24a.375.375 0 1 0-.04.749c.314.016.514.11.64.238.127.127.221.332.239.652a.375.375 0 1 0 .748-.04c-.024-.45-.165-.848-.454-1.14-.29-.293-.685-.435-1.133-.459Z"/></svg><svg viewBox="0 0 18 18" id="whatsapp" xmlns="http://www.w3.org/2000/svg"><path d="M7.554 5.504v.001c.1.221.263.62.393.935l.003.008a83.6 83.6 0 0 0 .178.43l.015.034v-.001l-.447.224m-.142-1.63L8.16 7.69a.852.852 0 0 0-.017-.78l-.447.225m-.142-1.63c-.096-.215-.228-.4-.425-.513a.9.9 0 0 0-.45-.114m.875.626-.875-.626m1.017 2.257c.048.096.078.207.015.336L7.098 5.71c.096.214.258.607.39.928.102.25.187.455.208.497Zm5.665 3.375a.763.763 0 0 0-.266-.259c-.067-.04-.144-.077-.202-.105l-.01-.005-.18.375.18-.375a13.194 13.194 0 0 0-1.469-.697l-.007-.003c-.082-.03-.262-.098-.463-.074a.77.77 0 0 0-.555.363c-.088.13-.325.412-.478.592a5.13 5.13 0 0 0-.058-.025l-.008-.004h-.002a4.477 4.477 0 0 1-1.292-.813v-.001a5.182 5.182 0 0 1-.894-1.076c.047-.053.093-.109.13-.154l.008-.01a6.31 6.31 0 0 1 .1-.118c.13-.149.19-.274.241-.382l.004-.007.02-.042 4.77 3.075m.43-.255-.43.255m.43-.255-.43.255m.43-.255a.77.77 0 0 1 .095.33c.006.088.005.185-.004.287a2.951 2.951 0 0 1-.16.72l-.002.004c-.14.386-.495.682-.78.865-.29.187-.655.351-.949.379m1.37-2.33c.049.081.049.465-.11.916-.164.45-.95.883-1.306.916m.046.498-.046-.498m.046.498-.046-.498m.046.498a3.7 3.7 0 0 0-.088.01l-.06-.497m.101-.011-.101.011m0 0 .06.496c-.186.023-.425.05-.82-.016-.378-.063-.887-.21-1.64-.506m2.4.026c-.327.04-.741.09-2.217-.491m-.183.465L5.742 5.65c-.2.212-.64.677-.64 1.57 0 .932.676 1.836.787 1.984l.004.005.04.058m3.079 3.314c-1.964-.773-3.236-2.652-3.489-3.026l-.005-.008.414-.28m3.08 3.314.183-.465m-.183.465.183-.465m-.183.465L5.49 9.507m3.705 2.61c-1.82-.716-3.02-2.49-3.263-2.85m0 0-.414.28-.023-.032-.005-.008m0 0 .002.002-.002-.002Zm1.19-4.63c-.12-.003-.256-.003-.382-.003h-.005c-.244 0-.594.089-.882.4l-.032.033c-.227.24-.777.825-.777 1.913 0 .579.207 1.12.406 1.513.202.4.42.69.48.771l.002.003 1.19-4.63Zm-.983 10.15a.5.5 0 0 0-.365-.045l-3.12.815.831-3.016a.5.5 0 0 0-.05-.383 6.906 6.906 0 0 1-.93-3.464C2.063 5.114 5.191 2 9.031 2c1.868 0 3.615.723 4.93 2.033A6.87 6.87 0 0 1 16 8.937c0 3.82-3.128 6.934-6.969 6.934h-.003a7 7 0 0 1-3.331-.845Z" stroke="#87898F" stroke-linejoin="round"/></svg></svg>