<svg width="50" height="50" viewBox="0 0 50 50" fill="none" xmlns="http://www.w3.org/2000/svg">
<path opacity="0.2" d="M35.475 0H14.525C5.425 0 0 5.425 0 14.525V35.475C0 44.575 5.425 50 14.525 50H35.475C44.575 50 50 44.575 50 35.475V14.525C50 5.425 44.575 0 35.475 0Z" fill="#34A853"/>
<path d="M40.775 17.175C40.775 18.2 39.95 19.05 38.9 19.05H25.775C24.75 19.05 23.9 18.2 23.9 17.175C23.9 16.15 24.75 15.3 25.775 15.3H38.9C39.95 15.3 40.775 16.15 40.775 17.175Z" fill="#34A853"/>
<path d="M19.925 14.7499L14.3 20.3749C13.925 20.7499 13.45 20.9249 12.975 20.9249C12.5 20.9249 12 20.7499 11.65 20.3749L9.77502 18.4999C9.02502 17.7749 9.02502 16.5749 9.77502 15.8499C10.5 15.1249 11.675 15.1249 12.425 15.8499L12.975 16.3999L17.275 12.0999C18 11.3749 19.175 11.3749 19.925 12.0999C20.65 12.8249 20.65 14.0249 19.925 14.7499Z" fill="#34A853"/>
<path d="M40.775 34.675C40.775 35.7 39.95 36.55 38.9 36.55H25.775C24.75 36.55 23.9 35.7 23.9 34.675C23.9 33.65 24.75 32.8 25.775 32.8H38.9C39.95 32.8 40.775 33.65 40.775 34.675Z" fill="#34A853"/>
<path d="M19.925 32.2499L14.3 37.8749C13.925 38.2499 13.45 38.4249 12.975 38.4249C12.5 38.4249 12 38.2499 11.65 37.8749L9.77502 35.9999C9.02502 35.2749 9.02502 34.0749 9.77502 33.3499C10.5 32.6249 11.675 32.6249 12.425 33.3499L12.975 33.8999L17.275 29.5999C18 28.8749 19.175 28.8749 19.925 29.5999C20.65 30.3249 20.65 31.5249 19.925 32.2499Z" fill="#34A853"/>
</svg>
