<svg width="1184" height="560" viewBox="0 0 1184 560" fill="none" xmlns="http://www.w3.org/2000/svg">
<path d="M1216.23 559.984H1008.16L957.15 525.665L910.058 493.986L866.443 464.646L825.943 437.393L788.225 412.021L753.021 388.34L720.077 366.177L689.188 345.406L660.18 325.883M1216.24 559.984V0.0158235M-32.1651 466.653V93.3308M-32.1651 466.653V559.984H175.853L226.771 525.665L273.784 493.986L317.319 464.646L357.756 437.393L395.411 412.021L430.552 388.34L463.433 366.177L494.259 345.406L523.219 325.883H694.325L737.829 345.406M-32.1651 466.653L44.251 443.763L114.802 422.628L180.137 403.058L240.808 384.894L297.306 367.98L350.042 352.187L399.379 337.407L445.633 323.559L489.089 310.549V233.801L445.633 214.309M-32.1651 0H1216.23M1008.18 560H175.9M44.2352 34.3034V525.681H1139.72L1069.09 494.001M1069.09 494.001H114.786V65.9353M1069.09 494.001V65.9353L1139.72 34.2876H44.251L-32.1651 0.0158235V93.3466L44.251 116.189L114.802 137.277L180.137 156.8L240.808 174.932L297.306 191.815L350.042 207.575L399.379 222.324L445.633 236.156L489.089 249.15M114.786 65.9353L44.2352 34.2876M114.786 65.9353H910.042L957.134 34.2876L1008.15 0.0158235M1003.69 464.662H180.121V95.2435M942.954 437.409H240.792V122.449M1216.23 0.031647L1139.73 34.3034V116.205L1069.1 137.293L1003.7 156.816L942.97 174.948L886.409 191.83L833.61 207.591L784.21 222.34L737.892 236.172L694.389 249.166V310.565L737.892 323.575L784.21 337.423L833.61 352.203L886.409 367.996L942.97 384.91L1003.7 403.073L1069.1 422.644L1139.73 443.779V525.681L1216.23 560M886.377 412.021H297.275V147.774M1069.09 65.9195L1003.69 95.2118M1003.69 95.2118V464.63L1069.09 493.97M1003.69 95.2118H180.121L114.786 65.9195M1216.23 93.3308L1139.73 116.173V443.763L1216.23 466.653M175.9 0.0158235L226.818 34.2876L273.831 65.9353L317.367 95.2276L357.804 122.433L395.458 147.774L430.6 171.422L463.48 193.554L494.306 214.294L523.266 233.785H660.148L689.156 214.294L720.045 193.554L752.989 171.422L788.193 147.774L825.911 122.433L866.412 95.2276L910.026 65.9353H1069.07M1003.67 95.2276L942.938 122.433V437.393L1003.67 464.646M180.09 95.2276L240.761 122.433H942.923M800.065 559.984L774.535 525.665L750.965 493.986L729.135 464.646L708.869 437.393L689.994 412.021L672.368 388.34L655.88 366.177L640.42 345.406L625.892 325.883M383.918 559.984L409.354 525.665L432.844 493.986L454.596 464.646L474.799 437.393L493.61 412.021L511.173 388.34L527.598 366.177L542.995 345.406L557.459 325.883M350.01 171.422V388.34H833.547L784.147 366.177M489.058 295.184L445.601 301.696L399.347 308.636L350.01 316.034L297.275 323.938L240.777 332.412L180.105 341.501L114.771 351.302L44.2194 361.878L-32.1967 373.338M489.026 264.5L445.57 258.019L399.316 251.111L349.979 243.744L297.243 235.872L240.745 227.43L180.074 218.372L114.739 208.619L44.1878 198.09L-32.2283 186.677M942.891 122.433L886.33 147.774V412.021L942.891 437.393M240.729 122.433L297.227 147.774H886.346M591.984 559.984L591.937 525.665L591.889 493.986L591.857 464.646L591.826 437.393L591.794 412.021L591.763 388.34L591.731 366.177L591.699 345.406L591.668 325.883M489.01 279.834H445.554L399.3 279.866H349.963L297.227 279.897H240.729L180.058 279.929H114.723L44.172 279.976L-32.2441 280.008M886.314 147.774L833.515 171.422M833.515 171.422V388.34L886.314 412.021M833.515 171.422H349.931M297.196 147.774L349.931 171.422M349.931 171.422L399.268 193.554H784.131L833.531 171.422M784.147 366.177V193.554L737.829 214.294H445.538L399.284 193.554V366.177H784.147ZM445.601 345.406L489.058 325.883V310.533M737.924 214.309V345.422M737.924 345.422L784.241 366.193M737.924 345.422H445.633L399.379 366.193L350.042 388.356L297.306 412.037L240.808 437.409L180.137 464.662L114.802 494.001L44.251 525.681L-32.1651 560M445.601 214.309V345.422M1216.21 373.338L1139.72 361.878L1069.09 351.302L1003.69 341.501L942.954 332.412L886.393 323.938L833.594 316.034L784.194 308.636L737.876 301.696L694.373 295.184M1216.21 186.661L1139.72 198.075L1069.09 208.603L1003.69 218.356L942.954 227.414L886.393 235.856L833.594 243.728L784.194 251.095L737.876 258.003L694.373 264.484M625.94 233.785L640.467 214.294L655.927 193.554L672.415 171.422L690.041 147.774L708.916 122.433L729.182 95.2276L751.013 65.9353L774.583 34.2876L800.113 0.0158235M557.522 233.785L543.058 214.294L527.661 193.554L511.236 171.422L493.674 147.774L474.862 122.433L454.659 95.2276L432.908 65.9353L409.417 34.2876L383.982 0.0158235M1216.24 280.008L1139.75 279.976H1069.12L1003.72 279.929H942.986L886.425 279.897H833.626L784.226 279.866H737.908L694.404 279.834M591.747 233.785L591.778 214.294L591.81 193.554L591.842 171.422L591.873 147.774L591.905 122.433L591.937 95.2276L591.968 65.9353L592.016 34.2876L592.063 0.0158235M694.42 233.785V249.135M489.105 233.785H523.33M660.212 233.785H694.436L737.94 214.294M694.436 310.533V325.883M523.33 325.883H489.105" stroke="white" stroke-opacity="0.16" stroke-linecap="round" stroke-linejoin="round"/>
</svg>
