<svg width="56" height="56" viewBox="0 0 56 56" fill="none" xmlns="http://www.w3.org/2000/svg">
<path opacity="0.4" d="M42 47.8331H39.6667V47.2497C39.6667 44.6831 37.5667 42.5831 35 42.5831H29.75V37.2397C29.1667 37.3097 28.5833 37.3331 28 37.3331C27.4167 37.3331 26.8333 37.3097 26.25 37.2397V42.5831H21C18.4333 42.5831 16.3333 44.6831 16.3333 47.2497V47.8331H14C13.0433 47.8331 12.25 48.6264 12.25 49.5831C12.25 50.5397 13.0433 51.3331 14 51.3331H42C42.9567 51.3331 43.75 50.5397 43.75 49.5831C43.75 48.6264 42.9567 47.8331 42 47.8331Z" fill="white"/>
<path opacity="0.4" d="M12.8803 27.1593C11.3403 26.576 9.98698 25.6193 8.91365 24.546C6.74365 22.1427 5.32031 19.2727 5.32031 15.9127C5.32031 12.5527 7.95698 9.91602 11.317 9.91602H12.6236C12.017 11.1527 11.667 12.5293 11.667 13.9993V20.9993C11.667 23.1927 12.087 25.2693 12.8803 27.1593Z" fill="white"/>
<path opacity="0.4" d="M50.6801 15.9127C50.6801 19.2727 49.2568 22.1427 47.0868 24.546C46.0135 25.6193 44.6601 26.576 43.1201 27.1593C43.9135 25.2693 44.3335 23.1927 44.3335 20.9993V13.9993C44.3335 12.5293 43.9835 11.1527 43.3768 9.91602H44.6835C48.0435 9.91602 50.6801 12.5527 50.6801 15.9127Z" fill="white"/>
<path d="M34.9994 4.66602H20.9994C15.8427 4.66602 11.666 8.84268 11.666 13.9994V20.9994C11.666 30.0294 18.9694 37.3327 27.9994 37.3327C37.0294 37.3327 44.3327 30.0294 44.3327 20.9994V13.9994C44.3327 8.84268 40.156 4.66602 34.9994 4.66602ZM34.626 19.716L33.1794 21.4894C32.946 21.746 32.7827 22.2594 32.806 22.6094L32.946 24.896C33.0394 26.296 32.036 27.0194 30.7294 26.506L28.606 25.666C28.2794 25.5494 27.7194 25.5494 27.3927 25.666L25.2694 26.506C23.9627 27.0194 22.9594 26.296 23.0527 24.896L23.1927 22.6094C23.216 22.2594 23.0527 21.746 22.8194 21.4894L21.3727 19.716C20.4627 18.6427 20.8594 17.4527 22.2127 17.1027L24.4294 16.5427C24.7794 16.4494 25.1994 16.1227 25.386 15.8194L26.6227 13.906C27.3927 12.716 28.606 12.716 29.376 13.906L30.6127 15.8194C30.7994 16.1227 31.2194 16.4494 31.5694 16.5427L33.786 17.1027C35.1394 17.4527 35.536 18.6427 34.626 19.716Z" fill="white"/>
<path opacity="0.4" d="M34.6264 19.7167L33.1797 21.49C32.9464 21.7467 32.7831 22.26 32.8064 22.61L32.9464 24.8967C33.0397 26.2967 32.0364 27.02 30.7297 26.5067L28.6064 25.6667C28.2797 25.55 27.7197 25.55 27.3931 25.6667L25.2697 26.5067C23.9631 27.02 22.9597 26.2967 23.0531 24.8967L23.1931 22.61C23.2164 22.26 23.0531 21.7467 22.8197 21.49L21.3731 19.7167C20.4631 18.6433 20.8597 17.4533 22.2131 17.1033L24.4297 16.5433C24.7797 16.45 25.1997 16.1233 25.3864 15.82L26.6231 13.9067C27.3931 12.7167 28.6064 12.7167 29.3764 13.9067L30.6131 15.82C30.7997 16.1233 31.2197 16.45 31.5697 16.5433L33.7864 17.1033C35.1397 17.4533 35.5364 18.6433 34.6264 19.7167Z" fill="white"/>
</svg>
