<svg width="62" height="62" viewBox="0 0 62 62" fill="none" xmlns="http://www.w3.org/2000/svg">
<path opacity="0.2" d="M5.16663 33.2734V28.7267C5.16663 26.04 7.36246 23.8184 10.075 23.8184C14.7508 23.8184 16.6625 20.5117 14.3116 16.4559C12.9683 14.1309 13.7691 11.1084 16.12 9.76504L20.5891 7.20754C22.63 5.99337 25.265 6.71671 26.4791 8.75754L26.7633 9.24837C29.0883 13.3042 32.9116 13.3042 35.2625 9.24837L35.5466 8.75754C36.7608 6.71671 39.3958 5.99337 41.4366 7.20754L45.9058 9.76504C48.2566 11.1084 49.0575 14.1309 47.7141 16.4559C45.3633 20.5117 47.275 23.8184 51.9508 23.8184C54.6375 23.8184 56.8591 26.0142 56.8591 28.7267V33.2734C56.8591 35.96 54.6633 38.1817 51.9508 38.1817C47.275 38.1817 45.3633 41.4884 47.7141 45.5442C49.0575 47.895 48.2566 50.8917 45.9058 52.235L41.4366 54.7925C39.3958 56.0067 36.7608 55.2834 35.5466 53.2425L35.2625 52.7517C32.9375 48.6959 29.1141 48.6959 26.7633 52.7517L26.4791 53.2425C25.265 55.2834 22.63 56.0067 20.5891 54.7925L16.12 52.235C13.7691 50.8917 12.9683 47.8692 14.3116 45.5442C16.6625 41.4884 14.7508 38.1817 10.075 38.1817C7.36246 38.1817 5.16663 35.96 5.16663 33.2734Z" fill="#34A853"/>
<path d="M31 39.3958C35.6368 39.3958 39.3958 35.6368 39.3958 31C39.3958 26.3631 35.6368 22.6041 31 22.6041C26.3631 22.6041 22.6041 26.3631 22.6041 31C22.6041 35.6368 26.3631 39.3958 31 39.3958Z" fill="#34A853"/>
</svg>
