<svg width="62" height="62" viewBox="0 0 62 62" fill="none" xmlns="http://www.w3.org/2000/svg">
<path d="M54.1725 2.58337H46.5775C43.2967 2.58337 41.3334 4.54671 41.3334 7.82754V15.4225C41.3334 18.7034 43.2967 20.6667 46.5775 20.6667H54.1725C57.4534 20.6667 59.4167 18.7034 59.4167 15.4225V7.82754C59.4167 4.54671 57.4534 2.58337 54.1725 2.58337ZM55.8259 12.09C54.87 15.1384 51.5375 16.7917 50.375 16.7917C49.2125 16.7917 45.9059 15.19 44.9242 12.09C44.7692 11.625 44.6917 11.1084 44.6917 10.6175C44.6917 8.93837 45.5442 7.20754 47.3267 6.63921C48.3859 6.30337 49.5225 6.48421 50.3234 7.15587C51.15 6.51004 52.2867 6.30337 53.3717 6.63921C55.7484 7.38837 56.4975 10.0492 55.8259 12.09Z" fill="#34A853"/>
<path opacity="0.2" d="M54.1725 20.6666H46.5775C43.2966 20.6666 41.3333 18.7033 41.3333 15.4225V7.82746C41.3333 6.79413 41.54 5.91579 41.9016 5.16663H18.0833C10.9533 5.16663 5.16663 10.9275 5.16663 18.0316V33.48V36.0633C5.16663 43.1675 10.9533 48.9283 18.0833 48.9283H21.9583C22.6558 48.9283 23.5858 49.3933 24.025 49.9616L27.9 55.1025C29.605 57.3758 32.395 57.3758 34.1 55.1025L37.975 49.9616C38.4658 49.3158 39.2408 48.9283 40.0416 48.9283H43.9166C51.0466 48.9283 56.8333 43.1675 56.8333 36.0633V20.0725C56.0841 20.46 55.2058 20.6666 54.1725 20.6666Z" fill="#34A853"/>
<path d="M31 31C29.5533 31 28.4166 29.8375 28.4166 28.4167C28.4166 26.9959 29.5791 25.8334 31 25.8334C32.4208 25.8334 33.5833 26.9959 33.5833 28.4167C33.5833 29.8375 32.4466 31 31 31Z" fill="#34A853"/>
<path d="M41.3333 31C39.8867 31 38.75 29.8375 38.75 28.4167C38.75 26.9959 39.9125 25.8334 41.3333 25.8334C42.7542 25.8334 43.9167 26.9959 43.9167 28.4167C43.9167 29.8375 42.78 31 41.3333 31Z" fill="#34A853"/>
<path d="M20.6667 31C19.22 31 18.0834 29.8375 18.0834 28.4167C18.0834 26.9959 19.2459 25.8334 20.6667 25.8334C22.0875 25.8334 23.25 26.9959 23.25 28.4167C23.25 29.8375 22.1134 31 20.6667 31Z" fill="#34A853"/>
</svg>
