<svg width="40" height="40" viewBox="0 0 40 40" fill="none" xmlns="http://www.w3.org/2000/svg">
<g clip-path="url(#clip0_4578_15060)">
<path fill-rule="evenodd" clip-rule="evenodd" d="M20.6286 0C21.0704 0 21.4286 0.358172 21.4286 0.8V8.53498C21.4286 9.41428 22.641 9.64994 22.9704 8.83466L25.8678 1.66291C26.0334 1.25326 26.4996 1.05534 26.9094 1.22085L28.075 1.69178C28.4846 1.8573 28.6826 2.32356 28.517 2.73322L25.428 10.379C25.1014 11.187 26.119 11.8606 26.7354 11.2443L32.5662 5.41338C32.8788 5.10096 33.3852 5.10096 33.6976 5.41338L34.5866 6.30232C34.899 6.61474 34.899 7.12126 34.5866 7.43368L29.3504 12.6699C28.7254 13.295 29.4264 14.3226 30.2364 13.9686L37.022 11.0039C37.427 10.827 37.8986 11.0118 38.0754 11.4167L38.5788 12.5687C38.7556 12.9736 38.5708 13.4452 38.166 13.6221L30.3468 17.0383C29.5524 17.3854 29.8002 18.5714 30.667 18.5714H39.2C39.6418 18.5714 40 18.9296 40 19.3714V20.6286C40 21.0704 39.6418 21.4286 39.2 21.4286H30.6672C29.8002 21.4286 29.5526 22.6146 30.3468 22.9616L38.166 26.378C38.5708 26.5548 38.7556 27.0264 38.5788 27.4312L38.0754 28.5832C37.8986 28.9882 37.427 29.173 37.022 28.996L30.2364 26.0314C29.4264 25.6774 28.7254 26.705 29.3504 27.3302L34.5866 32.5662C34.899 32.8788 34.899 33.3852 34.5866 33.6976L33.6976 34.5866C33.3852 34.899 32.8788 34.899 32.5662 34.5866L26.7354 28.7556C26.119 28.1394 25.1014 28.813 25.428 29.621L28.517 37.2668C28.6826 37.6764 28.4846 38.1426 28.075 38.3082L26.9094 38.7792C26.4996 38.9446 26.0334 38.7468 25.8678 38.337L22.9704 31.1654C22.641 30.35 21.4286 30.5858 21.4286 31.465V39.2C21.4286 39.6418 21.0704 40 20.6286 40H19.3714C18.9296 40 18.5714 39.6418 18.5714 39.2V31.465C18.5714 30.5858 17.3591 30.35 17.0297 31.1654L14.1321 38.337C13.9666 38.7468 13.5003 38.9446 13.0907 38.7792L11.9251 38.3082C11.5154 38.1426 11.3175 37.6764 11.483 37.2668L14.5721 29.621C14.8986 28.813 13.8809 28.1394 13.2647 28.7556L7.4337 34.5866C7.12128 34.899 6.61474 34.899 6.30234 34.5866L5.4134 33.6976C5.10098 33.3852 5.10098 32.8788 5.4134 32.5662L10.6496 27.33C11.2747 26.705 10.5737 25.6774 9.7636 26.0314L2.9779 28.996C2.57304 29.173 2.10142 28.9882 1.92453 28.5832L1.42121 27.4312C1.24432 27.0264 1.42914 26.5548 1.83401 26.378L9.65314 22.9616C10.4475 22.6146 10.1997 21.4286 9.33284 21.4286H0.8C0.358172 21.4286 0 21.0704 0 20.6286V19.3714C0 18.9296 0.358172 18.5714 0.8 18.5714H9.33288C10.1997 18.5714 10.4475 17.3854 9.65318 17.0383L1.834 13.6221C1.42913 13.4452 1.24432 12.9736 1.42121 12.5687L1.92452 11.4167C2.10142 11.0118 2.57302 10.827 2.9779 11.0039L9.7636 13.9686C10.5737 14.3226 11.2747 13.295 10.6496 12.6699L5.4134 7.4337C5.10098 7.12128 5.10098 6.61474 5.4134 6.30232L6.30232 5.4134C6.61474 5.10098 7.12128 5.10098 7.4337 5.4134L13.2647 11.2444C13.8809 11.8606 14.8986 11.187 14.5721 10.379L11.483 2.73322C11.3175 2.32356 11.5154 1.8573 11.9251 1.69178L13.0907 1.22085C13.5003 1.05534 13.9666 1.25326 14.1321 1.66291L17.0297 8.83466C17.3591 9.64994 18.5714 9.41428 18.5714 8.53498V0.8C18.5714 0.358172 18.9296 0 19.3714 0H20.6286ZM20 28.5714C24.7338 28.5714 28.5714 24.7338 28.5714 20C28.5714 15.2661 24.7338 11.4286 20 11.4286C15.2661 11.4286 11.4286 15.2661 11.4286 20C11.4286 24.7338 15.2661 28.5714 20 28.5714Z" fill="#373A44"/>
</g>
<defs>
<clipPath id="clip0_4578_15060">
<rect width="40" height="40" fill="white"/>
</clipPath>
</defs>
</svg>
