<svg width="40" height="40" viewBox="0 0 40 40" fill="none" xmlns="http://www.w3.org/2000/svg">
<g clip-path="url(#clip0_4578_15072)">
<path fill-rule="evenodd" clip-rule="evenodd" d="M21.4286 1C21.4286 0.447716 20.9809 0 20.4286 0H19.5714C19.0191 0 18.5714 0.447715 18.5714 1V14.1369C18.5714 15.0278 17.4943 15.474 16.8643 14.844L7.57513 5.55481C7.1846 5.16428 6.55144 5.16429 6.16091 5.55481L5.55482 6.16091C5.1643 6.55144 5.1643 7.1846 5.55482 7.57512L14.844 16.8643C15.474 17.4943 15.0278 18.5714 14.1369 18.5714H1C0.447715 18.5714 0 19.0191 0 19.5714V20.4286C0 20.9809 0.447715 21.4286 1 21.4286H14.1369C15.0278 21.4286 15.474 22.5057 14.844 23.1357L5.55484 32.4249C5.16431 32.8154 5.16432 33.4486 5.55486 33.8391L6.16091 34.4451C6.55144 34.8356 7.18459 34.8356 7.57511 34.4451L16.8643 25.1559C17.4943 24.5259 18.5714 24.9721 18.5714 25.863V39C18.5714 39.5523 19.0191 40 19.5714 40H20.4286C20.9809 40 21.4286 39.5523 21.4286 39V25.863C21.4286 24.9721 22.5057 24.5259 23.1357 25.1559L32.4249 34.4451C32.8154 34.8356 33.4486 34.8356 33.8391 34.4451L34.4451 33.8391C34.8356 33.4486 34.8356 32.8154 34.4451 32.4249L25.1559 23.1357C24.5259 22.5057 24.9721 21.4286 25.863 21.4286H39C39.5523 21.4286 40 20.9809 40 20.4286V19.5714C40 19.0191 39.5523 18.5714 39 18.5714H25.863C24.9721 18.5714 24.5259 17.4943 25.1559 16.8643L34.4451 7.57509C34.8356 7.18457 34.8356 6.55142 34.4451 6.16089L33.8391 5.55484C33.4486 5.1643 32.8154 5.16429 32.4249 5.55482L23.1357 14.844C22.5057 15.474 21.4286 15.0278 21.4286 14.1369V1Z" fill="#373A44"/>
</g>
<defs>
<clipPath id="clip0_4578_15072">
<rect width="40" height="40" fill="white"/>
</clipPath>
</defs>
</svg>
