<svg width="40" height="40" viewBox="0 0 40 40" fill="none" xmlns="http://www.w3.org/2000/svg">
<path d="M17.7506 1.99927L22.7008 19.55M22.7008 19.55L30.8012 5.1494M22.7008 19.55L22.2508 21.3501M22.7008 19.55L21.3508 18.1999M22.2508 21.3501L38.0015 17.2999M22.2508 21.3501L20.4508 22.2501M20.4508 22.2501L34.8513 30.8004M20.4508 22.2501L18.2007 20.9M18.2007 20.9L22.7008 38.0007M18.2007 20.9V18.6499M18.2007 18.6499L9.20029 34.4006M18.2007 18.6499L19.5507 17.7499M19.5507 17.7499L2 22.7001M19.5507 17.7499L21.3508 18.1999M21.3508 18.1999L5.60015 9.19956" stroke="#373A44" stroke-width="2.5" stroke-linecap="round" stroke-linejoin="round"/>
<circle cx="20.4509" cy="20" r="1.8" fill="white"/>
</svg>
