<svg width="52" height="48" viewBox="0 0 52 48" fill="none" xmlns="http://www.w3.org/2000/svg">
<path d="M1.19902 34.5743L18.4764 4.77979C20.6711 6.08125 31.7378 12.2506 33.5251 13.4237L16.2477 43.22C14.3581 45.7344 -1.19484 38.3902 1.19902 34.5725V34.5743Z" fill="#FBBC04"/>
<path d="M50.835 34.5735L33.5576 4.78074C31.1422 0.731738 25.94 -0.739642 21.6673 1.6518C17.3946 4.04325 16.0936 9.19488 18.509 13.4246L35.7864 43.221C38.2018 47.2682 43.404 48.7396 47.6767 46.3481C51.7628 43.9567 53.2504 38.6225 50.835 34.5771V34.5735Z" fill="#2F80ED"/>
<path d="M8.67281 47.4998C13.4627 47.4998 17.3456 43.6856 17.3456 38.9806C17.3456 34.2756 13.4627 30.4614 8.67281 30.4614C3.88295 30.4614 0 34.2756 0 38.9806C0 43.6856 3.88295 47.4998 8.67281 47.4998Z" fill="#34A853"/>
</svg>
