<svg width="64" height="64" viewBox="0 0 64 64" fill="none" xmlns="http://www.w3.org/2000/svg">
<path opacity="0.58" d="M64 0H0V64H64V0Z" fill="white"/>
<path d="M45.3335 53.3334H18.6668C10.6668 53.3334 5.3335 48.0001 5.3335 40.0001V24.0001C5.3335 16.0001 10.6668 10.6667 18.6668 10.6667H45.3335C53.3335 10.6667 58.6668 16.0001 58.6668 24.0001V40.0001C58.6668 48.0001 53.3335 53.3334 45.3335 53.3334Z" fill="#FF0000"/>
<path d="M30.4535 25.3065L37.0402 29.2532C39.5469 30.7732 39.5469 33.2265 37.0402 34.7465L30.4535 38.6932C27.7868 40.2932 25.6001 39.0665 25.6001 35.9465V28.0265C25.6001 24.9332 27.7868 23.7065 30.4535 25.3065Z" fill="white"/>
</svg>
