<svg width="24" height="24" viewBox="0 0 24 24" fill="none" xmlns="http://www.w3.org/2000/svg">
<path opacity="0.4" d="M21.6602 10.44L20.6802 14.62C19.8402 18.23 18.1802 19.69 15.0602 19.39C14.5602 19.35 14.0202 19.26 13.4402 19.12L11.7602 18.72C7.59018 17.73 6.30018 15.67 7.28018 11.49L8.26018 7.30001C8.46018 6.45001 8.70018 5.71001 9.00018 5.10001C10.1702 2.68001 12.1602 2.03001 15.5002 2.82001L17.1702 3.21001C21.3602 4.19001 22.6402 6.26001 21.6602 10.44Z" fill="#2F80ED"/>
<path d="M15.0584 19.39C14.4384 19.81 13.6584 20.16 12.7084 20.47L11.1284 20.99C7.15839 22.27 5.06839 21.2 3.77839 17.23L2.49839 13.28C1.21839 9.30998 2.27839 7.20998 6.24839 5.92998L7.82839 5.40998C8.23839 5.27998 8.62839 5.16998 8.99839 5.09998C8.69839 5.70998 8.45839 6.44998 8.25839 7.29998L7.27839 11.49C6.29839 15.67 7.58839 17.73 11.7584 18.72L13.4384 19.12C14.0184 19.26 14.5584 19.35 15.0584 19.39Z" fill="#2F80ED"/>
<path d="M17.4894 10.51C17.4294 10.51 17.3694 10.5 17.2994 10.49L12.4494 9.26002C12.0494 9.16002 11.8094 8.75002 11.9094 8.35002C12.0094 7.95002 12.4194 7.71002 12.8194 7.81002L17.6694 9.04002C18.0694 9.14002 18.3094 9.55002 18.2094 9.95002C18.1294 10.28 17.8194 10.51 17.4894 10.51Z" fill="#2F80ED"/>
<path d="M14.5611 13.89C14.5011 13.89 14.4411 13.88 14.3711 13.87L11.4611 13.13C11.0611 13.03 10.8211 12.62 10.9211 12.22C11.0211 11.82 11.4311 11.58 11.8311 11.68L14.7411 12.42C15.1411 12.52 15.3811 12.93 15.2811 13.33C15.2011 13.67 14.9011 13.89 14.5611 13.89Z" fill="#2F80ED"/>
</svg>
