<svg width="62" height="62" viewBox="0 0 62 62" fill="none" xmlns="http://www.w3.org/2000/svg">
<path opacity="0.2" d="M35.8826 7.44012L23.7667 5.52845C13.6659 3.95262 8.99006 7.36262 7.38839 17.4635L5.47673 29.5793C4.44339 36.1926 5.52839 40.4809 9.27423 43.0901C11.2376 44.4851 13.9242 45.4151 17.4117 45.9576L29.5276 47.8693C39.6284 49.4451 44.3042 46.0351 45.9059 35.9343L47.7917 23.8185C48.1017 21.8293 48.2309 20.0468 48.1276 18.471C47.7917 12.0126 43.9942 8.70595 35.8826 7.44012ZM21.2867 24.1543C18.2642 24.1543 15.8101 21.7001 15.8101 18.7035C15.8101 15.681 18.2642 13.2268 21.2867 13.2268C24.2834 13.2268 26.7376 15.681 26.7376 18.7035C26.7376 21.7001 24.2834 24.1543 21.2867 24.1543Z" fill="#2F80ED"/>
<path d="M52.9583 34.7976L49.0833 46.4484C45.8542 56.1618 40.6875 58.7451 30.9742 55.5159L19.3233 51.6409C13.4592 49.7034 10.2042 47.0168 9.27417 43.0901C11.2375 44.4851 13.9242 45.4151 17.4117 45.9576L29.5275 47.8693C39.6283 49.4451 44.3042 46.0351 45.9058 35.9343L47.7917 23.8184C48.1017 21.8293 48.2308 20.0468 48.1275 18.4709C54.3017 21.7518 55.645 26.7118 52.9583 34.7976Z" fill="#2F80ED"/>
<path d="M26.7376 18.7032C26.7376 21.6999 24.2834 24.1541 21.2867 24.1541C18.2642 24.1541 15.8101 21.6999 15.8101 18.7032C15.8101 15.6807 18.2642 13.2266 21.2867 13.2266C24.2834 13.2266 26.7376 15.6807 26.7376 18.7032Z" fill="#2F80ED"/>
</svg>
