<svg width="62" height="62" viewBox="0 0 62 62" fill="none" xmlns="http://www.w3.org/2000/svg">
<path opacity="0.2" d="M31 56.5751C45.2673 56.5751 56.8333 45.0091 56.8333 30.7418C56.8333 16.4744 45.2673 4.90845 31 4.90845C16.7326 4.90845 5.16663 16.4744 5.16663 30.7418C5.16663 45.0091 16.7326 56.5751 31 56.5751Z" fill="#34A853"/>
<path d="M36.8384 31L32.9375 29.6308V20.8733H33.8675C35.96 20.8733 37.665 22.7075 37.665 24.955C37.665 26.0142 38.5434 26.8925 39.6025 26.8925C40.6617 26.8925 41.54 26.0142 41.54 24.955C41.54 20.5633 38.1042 16.9983 33.8675 16.9983H32.9375V15.5C32.9375 14.4408 32.0592 13.5625 31 13.5625C29.9409 13.5625 29.0625 14.4408 29.0625 15.5V16.9983H27.3834C23.56 16.9983 20.4342 20.2275 20.4342 24.18C20.4342 28.8042 23.1209 30.2767 25.1617 31L29.0625 32.3692V41.1008H28.1325C26.04 41.1008 24.335 39.2667 24.335 37.0192C24.335 35.96 23.4567 35.0817 22.3975 35.0817C21.3384 35.0817 20.46 35.96 20.46 37.0192C20.46 41.4108 23.8959 44.9758 28.1325 44.9758H29.0625V46.5C29.0625 47.5592 29.9409 48.4375 31 48.4375C32.0592 48.4375 32.9375 47.5592 32.9375 46.5V45.0017H34.6167C38.44 45.0017 41.5659 41.7725 41.5659 37.82C41.54 33.17 38.8534 31.6975 36.8384 31ZM26.4534 27.3575C25.1359 26.8925 24.335 26.4533 24.335 24.2058C24.335 22.3717 25.7042 20.8992 27.4092 20.8992H29.0884V28.2875L26.4534 27.3575ZM34.6167 41.1267H32.9375V33.7383L35.5467 34.6425C36.8642 35.1075 37.665 35.5467 37.665 37.7942C37.665 39.6283 36.2959 41.1267 34.6167 41.1267Z" fill="#34A853"/>
</svg>
