<svg width="65" height="60" viewBox="0 0 65 60" fill="none" xmlns="http://www.w3.org/2000/svg">
<g clip-path="url(#clip0_4372_12761)">
<path d="M58.5004 51.5139C58.5217 55.4543 55.3344 58.6629 51.3845 58.6841C51.0908 58.6865 50.7948 58.6699 50.5035 58.6345C46.8378 58.0939 44.1524 54.9137 44.2424 51.2212V8.76685C44.1548 5.06962 46.8473 1.88944 50.5154 1.35351C54.4392 0.895486 57.9937 3.69556 58.4531 7.60763C58.4862 7.89566 58.5028 8.18369 58.5004 8.47409V51.5139Z" fill="#34A853"/>
<path d="M13.6302 44.478C17.5682 44.478 20.7604 47.6606 20.7604 51.5868C20.7604 55.5131 17.5682 58.6956 13.6302 58.6956C9.69213 58.6956 6.5 55.5131 6.5 51.5868C6.5 47.6606 9.69213 44.478 13.6302 44.478ZM32.3899 22.9345C28.4328 23.1517 25.3639 26.4594 25.4562 30.4092V49.5021C25.4562 54.6844 27.7437 57.8291 31.0945 58.4996C34.9616 59.2811 38.7291 56.7903 39.5129 52.9349C39.61 52.4627 39.6574 51.9834 39.655 51.5018V30.0787C39.6621 26.1383 36.4653 22.9392 32.513 22.9321C32.4727 22.9321 32.4301 22.9321 32.3899 22.9345Z" fill="#277D3E"/>
</g>
<defs>
<clipPath id="clip0_4372_12761">
<rect width="65" height="60" rx="12" fill="white"/>
</clipPath>
</defs>
</svg>
