<svg width="61" height="61" viewBox="0 0 61 61" fill="none" xmlns="http://www.w3.org/2000/svg">
<g clip-path="url(#clip0_4372_12772)">
<path d="M35.2174 58.542L24.8027 48.3865L47.1695 25.5459L57.9523 36.1139L35.2174 58.542Z" fill="#8AB4F8"/>
<path d="M35.2614 13.6414L24.8843 3.04614L2.19372 25.522C-0.731239 28.4469 -0.731239 33.1889 2.19372 36.1173L24.5434 58.6135L35.1114 48.7273L18.0833 30.8196L35.2614 13.6414Z" fill="#4285F4"/>
<path d="M57.8034 25.696L35.3038 3.19628C32.3754 0.267908 27.6266 0.267908 24.6982 3.19628C21.7699 6.12464 21.7699 10.8734 24.6982 13.8018L47.1979 36.3015C50.1263 39.2299 54.8751 39.2299 57.8034 36.3015C60.7318 33.3731 60.7318 28.6243 57.8034 25.696Z" fill="#8AB4F8"/>
<path d="M29.8275 61.0002C33.8754 61.0002 37.1569 57.7187 37.1569 53.6708C37.1569 49.6228 33.8754 46.3413 29.8275 46.3413C25.7795 46.3413 22.498 49.6228 22.498 53.6708C22.498 57.7187 25.7795 61.0002 29.8275 61.0002Z" fill="#246FDB"/>
</g>
<defs>
<clipPath id="clip0_4372_12772">
<rect width="60" height="60" fill="white" transform="translate(0 1)"/>
</clipPath>
</defs>
</svg>
