<svg width="60" height="60" viewBox="0 0 60 60" fill="none" xmlns="http://www.w3.org/2000/svg">
<path opacity="0.4" d="M22.2001 11.5001C20.2001 2.85005 7.17506 2.82505 5.17506 11.5001C4.00006 16.5751 7.22506 20.8751 10.0251 23.5501C12.0751 25.4751 15.3001 25.4751 17.3501 23.5501C20.1501 20.8751 23.3501 16.5751 22.2001 11.5001ZM13.7751 15.5001C12.4001 15.5001 11.2751 14.3751 11.2751 13.0001C11.2751 11.6251 12.3751 10.5001 13.7501 10.5001H13.7751C15.1751 10.5001 16.2751 11.6251 16.2751 13.0001C16.2751 14.3751 15.1751 15.5001 13.7751 15.5001Z" fill="#2F80ED"/>
<path d="M16.2749 13C16.2749 14.375 15.1749 15.5 13.7749 15.5C12.3999 15.5 11.2749 14.375 11.2749 13C11.2749 11.625 12.3749 10.5 13.7499 10.5H13.7749C15.1749 10.5 16.2749 11.625 16.2749 13Z" fill="#2F80ED"/>
<path opacity="0.4" d="M54.775 41.5001C52.775 32.8501 39.7 32.8251 37.675 41.5001C36.5 46.5751 39.725 50.8751 42.55 53.5501C44.6 55.4751 47.85 55.4751 49.9 53.5501C52.725 50.8751 55.95 46.5751 54.775 41.5001ZM46.325 45.5001C44.95 45.5001 43.825 44.3751 43.825 43.0001C43.825 41.6251 44.925 40.5001 46.3 40.5001H46.325C47.7 40.5001 48.825 41.6251 48.825 43.0001C48.825 44.3751 47.7 45.5001 46.325 45.5001Z" fill="#2F80ED"/>
<path d="M48.8252 43C48.8252 44.375 47.7002 45.5 46.3252 45.5C44.9502 45.5 43.8252 44.375 43.8252 43C43.8252 41.625 44.9252 40.5 46.3002 40.5H46.3252C47.7002 40.5 48.8252 41.625 48.8252 43Z" fill="#2F80ED"/>
<path d="M30.0001 49.375H23.3001C20.4001 49.375 17.8751 47.625 16.8751 44.925C15.8501 42.225 16.6001 39.25 18.7751 37.325L38.7501 19.85C39.9501 18.8 39.9751 17.375 39.6251 16.4C39.2501 15.425 38.3001 14.375 36.7001 14.375H30.0001C28.9751 14.375 28.1251 13.525 28.1251 12.5C28.1251 11.475 28.9751 10.625 30.0001 10.625H36.7001C39.6001 10.625 42.1251 12.375 43.1251 15.075C44.1501 17.775 43.4001 20.75 41.2251 22.675L21.2501 40.15C20.0501 41.2 20.0251 42.625 20.3751 43.6C20.7501 44.575 21.7001 45.625 23.3001 45.625H30.0001C31.0251 45.625 31.8751 46.475 31.8751 47.5C31.8751 48.525 31.0251 49.375 30.0001 49.375Z" fill="#2F80ED"/>
</svg>
