<svg width="164" height="164" viewBox="0 0 164 164" fill="none" xmlns="http://www.w3.org/2000/svg">
<path opacity="0.4" d="M150.333 53.3684V94.9834L139.195 85.4168C133.865 80.8384 125.255 80.8384 119.925 85.4168L91.4982 109.812C86.1682 114.39 77.5582 114.39 72.2282 109.812L69.9048 107.898C65.0532 103.662 57.3315 103.252 51.8648 106.942L18.2448 129.492L17.4932 130.038C14.9648 124.572 13.6665 118.08 13.6665 110.632V53.3684C13.6665 28.4951 28.4948 13.6667 53.3682 13.6667H110.631C135.505 13.6667 150.333 28.4951 150.333 53.3684Z" fill="#87898F"/>
<path d="M61.5002 70.93C70.4821 70.93 77.7635 63.6486 77.7635 54.6667C77.7635 45.6847 70.4821 38.4033 61.5002 38.4033C52.5182 38.4033 45.2368 45.6847 45.2368 54.6667C45.2368 63.6486 52.5182 70.93 61.5002 70.93Z" fill="#87898F"/>
<path d="M150.333 94.9833V110.632C150.333 135.505 135.505 150.333 110.632 150.333H53.3682C35.9432 150.333 23.3698 143.022 17.4932 130.038L18.2448 129.492L51.8648 106.942C57.3315 103.252 65.0532 103.662 69.9048 107.898L72.2282 109.812C77.5582 114.39 86.1682 114.39 91.4982 109.812L119.925 85.4167C125.255 80.8383 133.865 80.8383 139.195 85.4167L150.333 94.9833Z" fill="#87898F"/>
</svg>
