<svg width="64" height="64" viewBox="0 0 64 64" fill="none" xmlns="http://www.w3.org/2000/svg">
<path opacity="0.4" d="M50.6654 23.9997C50.6654 27.8663 49.5187 31.413 47.5454 34.373C44.6654 38.6397 40.1054 41.653 34.7987 42.4263C33.892 42.5863 32.9587 42.6663 31.9987 42.6663C31.0387 42.6663 30.1054 42.5863 29.1987 42.4263C23.892 41.653 19.332 38.6397 16.452 34.373C14.4787 31.413 13.332 27.8663 13.332 23.9997C13.332 13.6797 21.6787 5.33301 31.9987 5.33301C42.3187 5.33301 50.6654 13.6797 50.6654 23.9997Z" fill="#34A853"/>
<path d="M56.6656 49.2533L52.2656 50.2932C51.2789 50.5332 50.5056 51.2799 50.2922 52.2666L49.3589 56.1866C48.8522 58.3199 46.1322 58.9599 44.7189 57.2799L31.9989 42.6666L19.2789 57.3066C17.8656 58.9866 15.1456 58.3465 14.6389 56.2132L13.7056 52.2932C13.4656 51.3065 12.6922 50.5332 11.7322 50.3199L7.33224 49.2799C5.30557 48.7999 4.58557 46.2666 6.05224 44.7999L16.4522 34.3999C19.3322 38.6666 23.8922 41.68 29.1989 42.4533C30.1056 42.6133 31.0389 42.6933 31.9989 42.6933C32.9589 42.6933 33.8922 42.6133 34.7989 42.4533C40.1056 41.68 44.6656 38.6666 47.5456 34.3999L57.9456 44.7999C59.4122 46.2399 58.6922 48.7733 56.6656 49.2533Z" fill="#34A853"/>
<path d="M33.5453 15.947L35.1186 19.0936C35.332 19.5203 35.892 19.947 36.3986 20.027L39.252 20.507C41.0653 20.8003 41.492 22.1337 40.1853 23.4403L37.972 25.6536C37.5986 26.0269 37.3853 26.747 37.5186 27.2803L38.1586 30.027C38.6653 32.187 37.5186 33.0403 35.5986 31.8936L32.932 30.3203C32.452 30.0269 31.652 30.0269 31.172 30.3203L28.5053 31.8936C26.5853 33.0136 25.4386 32.187 25.9453 30.027L26.5853 27.2803C26.692 26.7737 26.5053 26.0269 26.132 25.6536L23.9186 23.4403C22.612 22.1337 23.0386 20.827 24.852 20.507L27.7053 20.027C28.1853 19.947 28.7453 19.5203 28.9586 19.0936L30.532 15.947C31.3053 14.2403 32.692 14.2403 33.5453 15.947Z" fill="#34A853"/>
</svg>
