<svg width="64" height="64" viewBox="0 0 64 64" fill="none" xmlns="http://www.w3.org/2000/svg">
<path opacity="0.2" d="M43.173 5.33325H20.8263C11.1197 5.33325 5.33301 11.1199 5.33301 20.8266V43.1466C5.33301 52.8799 11.1197 58.6666 20.8263 58.6666H43.1463C52.853 58.6666 58.6397 52.8799 58.6397 43.1733V20.8266C58.6663 11.1199 52.8797 5.33325 43.173 5.33325Z" fill="#2F80ED"/>
<path d="M43.7863 20.8265V43.1732C43.7863 44.8798 42.3997 46.2665 40.693 46.2665C38.9597 46.2665 37.573 44.8798 37.573 43.1732V20.8265C37.573 19.1198 38.9597 17.7332 40.693 17.7332C42.3997 17.7332 43.7863 19.1198 43.7863 20.8265Z" fill="#2F80ED"/>
<path d="M26.4263 34.4798V43.1731C26.4263 44.8798 25.0397 46.2665 23.3063 46.2665C21.5997 46.2665 20.213 44.8798 20.213 43.1731V34.4798C20.213 32.7731 21.5997 31.3865 23.3063 31.3865C25.0397 31.3865 26.4263 32.7731 26.4263 34.4798Z" fill="#2F80ED"/>
</svg>
