<svg width="62" height="62" viewBox="0 0 62 62" fill="none" xmlns="http://www.w3.org/2000/svg">
<path d="M58.6667 22.4491C58.6667 25.5233 58.1758 28.365 57.3233 31H8.34333C7.49083 28.365 7 25.5233 7 22.4491C7 14.4666 13.4325 8.0083 21.3633 8.0083C26.0392 8.0083 30.2242 10.2816 32.8333 13.7691C35.4425 10.2816 39.6275 8.0083 44.3033 8.0083C52.2342 8.0083 58.6667 14.4666 58.6667 22.4491Z" fill="#2F80ED"/>
<path d="M57.3233 31C53.2416 43.9167 40.6608 51.6408 34.4349 53.7592C33.5566 54.0692 32.1099 54.0692 31.2316 53.7592C25.0058 51.6408 12.4249 43.9167 8.34326 31H57.3233Z" fill="#2F80ED"/>
<path d="M54.6667 22.4491C54.6667 25.5233 54.1758 28.365 53.3233 31H4.34333C3.49083 28.365 3 25.5233 3 22.4491C3 14.4666 9.4325 8.0083 17.3633 8.0083C22.0392 8.0083 26.2242 10.2816 28.8333 13.7691C31.4425 10.2816 35.6275 8.0083 40.3033 8.0083C48.2342 8.0083 54.6667 14.4666 54.6667 22.4491Z" fill="#E6F0FD"/>
<path d="M53.3233 31C49.2416 43.9167 36.6608 51.6408 30.4349 53.7592C29.5566 54.0692 28.1099 54.0692 27.2316 53.7592C21.0058 51.6408 8.42493 43.9167 4.34326 31H53.3233Z" fill="#E6F0FD"/>
</svg>
