<svg width="131" height="57" viewBox="0 0 131 57" fill="none" xmlns="http://www.w3.org/2000/svg">
<g clip-path="url(#clip0_4372_12943)">
<path fill-rule="evenodd" clip-rule="evenodd" d="M40.0054 31.4556C39.2665 32.6167 38.9499 31.7723 37.8943 32.7223C37.8943 33.7778 38.4221 33.8834 38.3165 34.5167L37.6832 35.8889C37.3665 36.9445 37.1554 36.5223 37.4721 37.7889C37.9999 39.7945 36.9443 40.0056 33.5665 40.6389C31.7721 40.9556 31.0332 40.8501 30.3999 42.2223C29.5554 44.2278 29.2388 48.3445 29.4499 50.6667C29.8721 54.8889 32.2999 54.7834 33.461 56.5778C22.9054 56.5778 24.1721 52.2501 15.1999 51.7223C15.6221 49.9278 17.4165 44.2278 18.261 42.8556C20.4777 38.9501 18.261 40.8501 20.5832 39.2667C22.4832 38.0001 23.1165 40.0056 24.4888 38.2112C25.6499 38.7389 26.811 40.1112 28.8165 40.5334C27.8665 39.9001 26.3888 38.9501 25.6499 38.2112C24.8054 37.3667 25.0165 37.6834 25.1221 36.4167C25.1221 35.4667 25.0165 34.9389 24.911 34.0945C26.2832 33.7778 26.7054 32.8278 26.2832 31.2445C27.2332 30.0834 28.6054 29.8723 27.9721 26.8112C28.9221 25.9667 30.2943 25.9667 29.7665 22.8001C31.4554 22.6945 32.1943 21.7445 32.1943 20.0556C33.5665 20.0556 33.7777 19.7389 34.7277 19.3167C36.4165 22.2723 36.6277 21.8501 36.7332 25.9667C36.7332 27.9723 37.1554 27.7612 38.1054 28.9223C38.7388 29.4501 40.0054 30.5056 40.0054 31.4556ZM31.6665 25.9667C33.5665 23.7501 35.6777 25.1223 35.7832 23.4334C34.5165 22.9056 31.8777 24.9112 31.6665 25.9667ZM14.1443 31.6667C10.7665 32.6167 10.2388 29.4501 12.6665 28.5001C13.8277 28.0778 14.5665 28.7112 15.9388 28.0778C20.3721 25.9667 18.1554 21.2167 22.2721 17.6278C23.8554 16.2556 28.1832 12.8778 30.611 13.3001C36.6277 14.2501 35.6777 18.8945 32.6165 19.0001C31.561 19.1056 31.561 18.7889 31.0332 18.3667C29.3443 16.7834 28.1832 16.5723 29.3443 14.5667C27.4443 15.7278 28.1832 16.9945 29.4499 18.0501C30.2943 18.7889 32.511 20.0556 30.5054 21.6389C29.8721 21.8501 28.2888 21.6389 27.2332 21.7445L28.711 22.6945C29.2388 25.1223 28.0777 26.1778 25.6499 25.8612C23.3277 25.5445 22.5888 23.8556 22.061 23.3278C22.9054 26.9167 25.7554 26.4945 26.9165 26.9167C27.4443 28.9223 26.5999 30.1889 24.8054 30.5056C22.9054 30.8223 21.4277 29.9778 19.9499 29.4501C23.961 33.2501 25.861 29.5556 25.2277 32.9334C22.9054 34.2001 20.6888 33.4612 19.1054 32.0889C20.161 33.9889 21.2165 34.0945 23.8554 34.5167C24.1721 36.6278 24.4888 38.8445 21.6388 38.1056L22.1665 35.9945C21.3221 36.9445 20.7943 38.2112 19.6332 39.0556C19.1054 39.4778 16.7832 40.6389 16.1499 40.9556L18.1554 40.6389C17.5221 44.5445 11.8221 43.7001 11.1888 39.4778C13.7221 40.4278 14.3554 40.5334 16.5721 39.1612C14.1443 39.4778 10.9777 39.7945 10.661 36.7334C12.1388 36.9445 13.4054 36.5223 14.3554 35.7834C13.1943 35.8889 11.3999 36.4167 10.5554 35.4667C9.39432 34.3056 10.7665 32.9334 11.2943 32.7223C11.8221 32.5112 15.411 33.9889 16.7832 30.2945C16.361 30.4001 15.0943 31.3501 14.1443 31.6667ZM13.1943 27.3389C13.4054 26.2834 18.3665 20.7945 19.4221 20.2667L17.7332 25.3334C17.0999 26.7056 15.6221 27.9723 13.1943 27.3389ZM35.8888 27.5501C35.9943 26.6001 35.6777 26.6001 36.311 26.2834C34.8332 26.0723 32.6165 27.1278 31.4554 27.5501H35.8888ZM5.59432 24.7001L-0.00012207 21.8501C-0.00012207 22.6945 0.633211 23.5389 1.05543 24.2778C1.58321 25.2278 3.2721 24.3834 3.16654 25.6501C3.16654 26.1778 3.69432 26.3889 4.11654 26.3889C6.86099 26.6001 9.81654 29.4501 10.7665 27.8667C14.9888 21.0056 20.6888 15.8334 27.761 12.2445C29.3443 11.5056 27.2332 10.7667 26.811 6.12226C26.7054 5.38338 26.9165 4.64449 25.7554 4.43338C25.1221 4.32782 25.6499 2.53338 25.2277 2.32226C24.911 2.21671 22.3777 -0.211071 23.011 1.58338L25.6499 8.86671C26.0721 10.1334 25.1221 10.5556 24.6999 10.5556C23.5388 10.3445 25.1221 8.23338 23.8554 7.49449C23.8554 7.49449 23.7499 7.28338 23.8554 7.17782C24.911 5.70004 23.5388 5.06671 22.7999 4.32782C21.3221 2.9556 22.9054 7.28338 20.3721 5.91115C21.6388 4.32782 19.3165 2.85004 18.8943 4.01115C18.6832 4.53893 18.5777 5.38338 19.1054 5.59449C20.161 6.01671 19.8443 6.96671 20.161 7.7056C19.211 7.7056 19.7388 5.27782 18.3665 6.7556C17.9443 7.17782 15.3054 6.01671 16.2554 7.81115C16.8888 8.97226 18.3665 9.18338 16.9943 10.6612C16.361 9.92227 15.6221 9.07782 14.6721 8.02226C14.6721 9.18338 14.7777 10.2389 14.2499 11.0834C14.0388 11.5056 13.9332 12.2445 13.4054 12.1389C12.8777 12.0334 12.2443 10.0278 12.7721 8.23338C12.6665 8.23338 12.6665 8.12782 12.561 8.12782C10.9777 9.50004 9.49988 10.7667 7.91654 12.1389C9.81654 12.0334 11.9277 12.8778 11.9277 13.4056C11.9277 13.9334 9.9221 14.7778 7.70543 13.9334C8.12766 14.7778 8.86654 15.2001 9.18321 15.9389C8.76099 16.3612 8.0221 15.3056 7.49432 15.7278C7.0721 16.1501 8.23321 17.3112 7.59988 17.9445C7.38877 18.1556 6.86099 18.0501 6.43877 18.0501C6.86099 17.1001 6.86099 16.4667 5.59432 16.3612C5.1721 16.3612 4.53877 15.9389 4.43321 16.6778C4.32766 17.3112 4.53877 18.1556 5.27766 18.2612C6.43877 18.3667 6.43877 19.2112 6.96654 19.8445C6.1221 20.1612 5.69988 17.7334 5.06655 19.5278C4.85543 20.1612 1.68877 19.9501 3.48321 21.4278C4.01099 21.8501 5.06654 21.8501 5.27766 22.2723C5.69988 23.1167 5.1721 23.7501 5.59432 24.7001C6.43877 24.3834 6.43877 23.5389 6.75543 22.8001C6.96655 23.4334 7.17766 25.4389 8.54988 24.0667C9.28877 23.2223 9.39432 22.9056 9.81655 23.1167C10.8721 23.5389 9.18321 26.9167 6.64988 25.4389C6.33321 25.2278 6.01654 24.9112 5.59432 24.7001ZM14.5665 13.7223C15.9388 12.9834 17.311 12.5612 18.9999 13.3001C17.7332 11.5056 17.7332 11.5056 18.8943 10.45C18.8943 11.0834 18.261 12.8778 20.2665 12.0334C21.2165 11.6112 21.4277 11.2945 21.7443 11.7167C22.6943 12.7723 18.3665 16.1501 14.5665 13.7223ZM12.0332 19.1056C12.0332 15.6223 13.4054 13.9334 13.8277 16.0445C14.3554 18.8945 12.7721 21.2167 12.0332 21.1112C11.0832 20.9001 11.8221 18.7889 10.4499 18.5778C10.0277 18.5778 10.3443 17.2056 10.9777 17.9445C11.2943 18.2612 11.7165 18.6834 12.0332 19.1056ZM28.6054 12.1389C28.4999 12.2445 28.2888 12.2445 28.0777 12.3501C20.8999 16.0445 14.9888 21.3223 10.7665 28.1834C9.81654 29.6612 10.9777 29.3445 11.0832 29.1334C11.2943 28.9223 11.3999 28.6056 11.611 28.3945C15.7277 21.7445 21.3221 16.7834 28.2888 13.1945C30.0832 12.3501 28.9221 12.0334 28.6054 12.1389Z" fill="url(#paint0_linear_4372_12943)"/>
<path d="M54.7105 23.0955L59.3581 16.9944H56.5049L52.1983 22.5392V16.9944H49.7219V29.5555H52.1983V23.6697L56.6844 29.5555H59.5375L54.7105 23.0955ZM67.2234 28.4429C68.1385 27.5278 68.6051 26.3973 68.6051 25.0694C68.6051 23.7415 68.1385 22.6289 67.2234 21.7138C66.3082 20.7986 65.1777 20.3321 63.8498 20.3321C62.5219 20.3321 61.3914 20.7986 60.4762 21.7138C59.5611 22.6289 59.1125 23.7415 59.1125 25.0694C59.1125 26.3973 59.5611 27.5278 60.4762 28.4429C61.3914 29.3581 62.5219 29.8067 63.8498 29.8067C65.1777 29.8067 66.3082 29.3581 67.2234 28.4429ZM62.1092 26.8459C61.6606 26.3793 61.4273 25.7872 61.4273 25.0694C61.4273 24.3516 61.6606 23.7594 62.1092 23.2929C62.5757 22.8263 63.15 22.5931 63.8498 22.5931C64.5496 22.5931 65.1239 22.8263 65.5904 23.2929C66.057 23.7594 66.2902 24.3516 66.2902 25.0694C66.2902 25.7872 66.057 26.3793 65.5904 26.8459C65.1239 27.3124 64.5496 27.5457 63.8498 27.5457C63.15 27.5457 62.5757 27.3124 62.1092 26.8459ZM75.1863 20.3321C73.9301 20.3321 72.9611 20.7627 72.2793 21.642V20.5833H69.9644V33.1444H72.2793V28.4968C72.9611 29.3761 73.9301 29.8067 75.1863 29.8067C76.3885 29.8067 77.4293 29.3581 78.2727 28.4429C79.134 27.5278 79.5647 26.3973 79.5647 25.0694C79.5647 23.7415 79.134 22.6289 78.2727 21.7138C77.4293 20.7986 76.3885 20.3321 75.1863 20.3321ZM72.9791 26.8997C72.5125 26.4152 72.2793 25.8051 72.2793 25.0694C72.2793 24.3337 72.5125 23.7236 72.9791 23.257C73.4456 22.7725 74.0378 22.5392 74.7556 22.5392C75.4734 22.5392 76.0655 22.7725 76.5321 23.257C77.0166 23.7236 77.2499 24.3337 77.2499 25.0694C77.2499 25.8051 77.0166 26.4152 76.5321 26.8997C76.0655 27.3663 75.4734 27.5996 74.7556 27.5996C74.0378 27.5996 73.4456 27.3663 72.9791 26.8997ZM88.5724 28.4429C89.4876 27.5278 89.9541 26.3973 89.9541 25.0694C89.9541 23.7415 89.4876 22.6289 88.5724 21.7138C87.6572 20.7986 86.5267 20.3321 85.1988 20.3321C83.8709 20.3321 82.7404 20.7986 81.8253 21.7138C80.9101 22.6289 80.4615 23.7415 80.4615 25.0694C80.4615 26.3973 80.9101 27.5278 81.8253 28.4429C82.7404 29.3581 83.8709 29.8067 85.1988 29.8067C86.5267 29.8067 87.6572 29.3581 88.5724 28.4429ZM83.4582 26.8459C83.0096 26.3793 82.7763 25.7872 82.7763 25.0694C82.7763 24.3516 83.0096 23.7594 83.4582 23.2929C83.9248 22.8263 84.499 22.5931 85.1988 22.5931C85.8987 22.5931 86.4729 22.8263 86.9394 23.2929C87.406 23.7594 87.6393 24.3516 87.6393 25.0694C87.6393 25.7872 87.406 26.3793 86.9394 26.8459C86.4729 27.3124 85.8987 27.5457 85.1988 27.5457C84.499 27.5457 83.9248 27.3124 83.4582 26.8459ZM91.6777 20.5833V25.6795C91.6777 27.0612 91.1573 27.6175 90.2063 27.3842V29.5555C92.7365 29.8247 93.9926 28.5865 93.9926 25.8051V22.8084H96.4689V29.5555H98.7837V20.5833H91.6777ZM109.333 26.0204C109.387 25.6795 109.423 25.3744 109.423 25.0694C109.423 23.7236 108.992 22.611 108.131 21.6958C107.288 20.7807 106.193 20.3321 104.883 20.3321C103.501 20.3321 102.353 20.7807 101.474 21.6958C100.594 22.5931 100.146 23.7236 100.146 25.0694C100.146 26.4332 100.594 27.5637 101.492 28.4609C102.389 29.3581 103.573 29.8067 105.062 29.8067C106.785 29.8067 108.095 29.1607 108.974 27.8867L107.108 26.81C106.66 27.4022 105.978 27.7072 105.098 27.7072C103.717 27.7072 102.873 27.1509 102.568 26.0204H109.333ZM102.532 24.226C102.801 23.0776 103.645 22.4136 104.883 22.4136C105.942 22.4136 106.839 23.0058 107.108 24.226H102.532ZM117.23 24.9617C117.822 24.5131 118.109 23.903 118.109 23.1134C118.109 21.6061 117.015 20.5833 115.13 20.5833H110.77V29.5555H115.489C117.409 29.5555 118.486 28.5147 118.486 27.0074C118.486 26.0563 118.073 25.3744 117.23 24.9617ZM114.915 22.4854C115.579 22.4854 115.902 22.7546 115.902 23.2929C115.902 23.8312 115.579 24.1004 114.915 24.1004H112.941V22.4854H114.915ZM112.941 27.5996V25.9307H115.22C115.848 25.9307 116.225 26.2358 116.225 26.7382C116.225 27.3124 115.884 27.5996 115.22 27.5996H112.941ZM126.484 21.642C125.784 20.7627 124.815 20.3321 123.559 20.3321C122.357 20.3321 121.334 20.7986 120.473 21.7138C119.629 22.6289 119.199 23.7415 119.199 25.0694C119.199 26.3973 119.629 27.5278 120.473 28.4429C121.334 29.3581 122.357 29.8067 123.559 29.8067C124.815 29.8067 125.784 29.3761 126.484 28.4968V29.5555H128.799V20.5833H126.484V21.642ZM122.213 26.8997C121.747 26.4152 121.513 25.8051 121.513 25.0694C121.513 24.3337 121.747 23.7236 122.213 23.257C122.68 22.7725 123.272 22.5392 123.99 22.5392C124.708 22.5392 125.3 22.7725 125.766 23.257C126.251 23.7236 126.484 24.3337 126.484 25.0694C126.484 25.8051 126.251 26.4152 125.766 26.8997C125.3 27.3663 124.708 27.5996 123.99 27.5996C123.272 27.5996 122.68 27.3663 122.213 26.8997ZM54.9079 42.4755C54.3875 42.7088 53.8133 42.8164 53.1673 42.8164C52.0547 42.8164 51.4984 42.3678 51.4984 41.4706V38.5277H49.1836V41.7398C49.1836 43.8393 50.6012 44.9698 52.7725 44.9698C53.5261 44.9698 54.2439 44.8621 54.9079 44.6468V47.4999H57.2227V38.5277H54.9079V42.4755ZM61.3144 43.6239V38.5277H59.0534V47.4999H60.776L64.993 42.4037V47.4999H67.254V38.5277H65.5313L61.3144 43.6239ZM73.3765 47.7512C75.1171 47.7512 76.6424 46.836 77.4319 45.4184L75.4222 44.2699C75.0633 45.0057 74.2917 45.4543 73.3586 45.4543C72.6587 45.4543 72.0845 45.221 71.6359 44.7724C71.1873 44.3058 70.954 43.7137 70.954 43.0138C70.954 41.5783 71.9768 40.5554 73.3586 40.5554C74.2737 40.5554 75.0453 41.022 75.4042 41.7577L77.3961 40.5913C76.6603 39.1737 75.1171 38.2765 73.3765 38.2765C72.0307 38.2765 70.9002 38.7251 69.985 39.6403C69.0878 40.5554 68.6392 41.668 68.6392 43.0138C68.6392 44.3597 69.0878 45.4722 69.985 46.3874C70.9002 47.3026 72.0307 47.7512 73.3765 47.7512ZM77.4552 38.5277V40.7528H80.2904V47.4999H82.6052V40.7528H85.4046V38.5277H77.4552ZM93.6654 46.3874C94.5806 45.4722 95.0472 44.3417 95.0472 43.0138C95.0472 41.6859 94.5806 40.5734 93.6654 39.6582C92.7503 38.7431 91.6198 38.2765 90.2919 38.2765C88.964 38.2765 87.8335 38.7431 86.9183 39.6582C86.0032 40.5734 85.5546 41.6859 85.5546 43.0138C85.5546 44.3417 86.0032 45.4722 86.9183 46.3874C87.8335 47.3026 88.964 47.7512 90.2919 47.7512C91.6198 47.7512 92.7503 47.3026 93.6654 46.3874ZM88.5513 44.7903C88.1027 44.3238 87.8694 43.7316 87.8694 43.0138C87.8694 42.2961 88.1027 41.7039 88.5513 41.2373C89.0178 40.7708 89.5921 40.5375 90.2919 40.5375C90.9917 40.5375 91.5659 40.7708 92.0325 41.2373C92.4991 41.7039 92.7323 42.2961 92.7323 43.0138C92.7323 43.7316 92.4991 44.3238 92.0325 44.7903C91.5659 45.2569 90.9917 45.4902 90.2919 45.4902C89.5921 45.4902 89.0178 45.2569 88.5513 44.7903ZM95.1768 38.5277V40.7528H98.012V47.4999H100.327V40.7528H103.126V38.5277H95.1768ZM106.355 43.6239V38.5277H104.093V47.4999H105.816L110.033 42.4037V47.4999H112.294V38.5277H110.572L106.355 43.6239Z" fill="#2E2E2E"/>
</g>
<defs>
<linearGradient id="paint0_linear_4372_12943" x1="-24.8057" y1="7.38894" x2="32.2257" y2="-15.8201" gradientUnits="userSpaceOnUse">
<stop stop-color="#07DAD3"/>
<stop offset="1" stop-color="#7A78FF"/>
</linearGradient>
<clipPath id="clip0_4372_12943">
<rect width="130.889" height="57" fill="white"/>
</clipPath>
</defs>
</svg>
