<svg width="115" height="41" viewBox="0 0 115 41" fill="none" xmlns="http://www.w3.org/2000/svg">
<g clip-path="url(#clip0_4372_12928)">
<path d="M3.98425 18.9081L7.28116 0.364624H22.2468L21.4453 4.87504H11.6569L11.0964 8.01741H19.9444L19.1849 12.2889H10.337L9.16166 18.9081H3.98425Z" fill="#373A44"/>
<path d="M16.9922 18.9076L28.2813 0.232666H33.2779L37.9128 18.9076H32.3557L31.5721 15.598H24.3636L22.4409 18.9076H16.9922ZM26.5996 11.6013H30.8006L29.6494 6.32621L26.5996 11.6013Z" fill="#373A44"/>
<path d="M39.0625 18.9081L42.3594 0.364624H51.1832C53.9015 0.364624 55.8061 1.03372 56.9092 2.36594C57.8132 3.46516 58.1025 4.94075 57.777 6.78674C57.536 8.14285 56.9936 9.29585 56.1497 10.2457C55.3059 11.1896 54.2451 11.9185 52.9553 12.4203L56.2642 18.9081H50.2852L47.5186 13.2686H45.2464L44.2459 18.9081H39.0625ZM45.9576 9.27196H49.375C50.2551 9.27196 50.9722 9.07481 51.5268 8.68052C52.0813 8.28624 52.4249 7.73662 52.5515 7.04363C52.678 6.33869 52.5273 5.80102 52.0994 5.43063C51.6714 5.06024 51.0145 4.87504 50.1285 4.87504H46.7352L45.9576 9.27196Z" fill="#373A44"/>
<path d="M58.6147 9.61227C58.8499 8.28005 59.332 7.01952 60.0493 5.83666C60.7665 4.65379 61.6465 3.63223 62.6892 2.77794C63.732 1.92364 64.9193 1.2426 66.2573 0.746759C67.5953 0.250911 68.9756 0 70.3981 0C71.9772 0 73.3333 0.232989 74.4664 0.692991C75.5996 1.15299 76.6062 1.83403 77.4861 2.73612L73.8034 6.35043C73.2128 5.77094 72.5859 5.34081 71.923 5.05406C71.26 4.7673 70.4884 4.6299 69.6024 4.6299C68.2524 4.6299 67.0348 5.11977 65.9379 6.09355C64.8409 7.06732 64.1659 8.2681 63.9128 9.68993C63.6415 11.2014 63.8947 12.4499 64.6721 13.4357C65.4497 14.4214 66.5767 14.9113 68.0595 14.9113C69.271 14.9113 70.3197 14.6424 71.2057 14.1108L71.6216 11.7809H67.9027L68.5657 8.07097H77.1787L75.69 16.4466C73.0139 18.3403 70.145 19.2842 67.0831 19.2842C65.1604 19.2842 63.4968 18.8781 62.0925 18.0596C60.6881 17.2411 59.6756 16.0942 59.0547 14.6186C58.434 13.1429 58.2833 11.4702 58.6147 9.61227Z" fill="#373A44"/>
<path d="M78.4797 9.64214C78.7148 8.33381 79.1909 7.07927 79.9202 5.8964C80.6495 4.71354 81.5355 3.686 82.5722 2.81976C83.6149 1.95949 84.8082 1.27248 86.1464 0.764681C87.4904 0.256884 88.8707 0 90.287 0C91.7034 0 92.9932 0.250911 94.1445 0.758706C95.3018 1.26053 96.2419 1.94755 96.9653 2.80184C97.6946 3.66211 98.2008 4.68366 98.5021 5.86654C98.7975 7.05537 98.8276 8.30992 98.5926 9.63617C98.3575 10.9445 97.8814 12.199 97.1521 13.3819C96.4228 14.5708 95.5428 15.5983 94.5001 16.4586C93.4635 17.3188 92.276 18.0058 90.9319 18.5137C89.5939 19.0214 88.2136 19.2783 86.8033 19.2783C84.9168 19.2783 83.2773 18.8482 81.8911 17.9939C80.5048 17.1336 79.5103 15.9746 78.9016 14.505C78.3108 13.0413 78.1663 11.4164 78.4797 9.64214ZM83.7896 9.64214C83.5426 11.0162 83.7896 12.1931 84.5189 13.1788C85.2483 14.1645 86.3031 14.6544 87.6893 14.6544C89.0876 14.6544 90.3172 14.1705 91.3779 13.1967C92.4388 12.2289 93.0898 11.0401 93.3429 9.64214C93.59 8.2681 93.3429 7.09122 92.6136 6.10549C91.8843 5.11977 90.8174 4.6299 89.4191 4.6299C88.0389 4.6299 86.8153 5.1138 85.7546 6.08758C84.6937 7.06134 84.0368 8.2442 83.7896 9.64214Z" fill="#373A44"/>
<path d="M0 40.6776L3.29691 22.134H17.3525L16.575 26.5071H7.31105L6.81079 29.3148H15.1947L14.4714 33.3773H6.08753L5.56316 36.3104H14.9475L14.1701 40.6835H0V40.6776Z" fill="#373A44"/>
<path d="M14.7598 40.6776L22.4204 31.2504L18.3038 22.134H23.8731L26.0369 27.3613L30.0871 22.134H35.5237L28.1704 31.2026L32.48 40.6835H26.9107L24.5541 35.0977L20.1964 40.6835H14.7598V40.6776Z" fill="#373A44"/>
<path d="M33.6758 40.6776L36.9728 22.134H44.4586C46.6827 22.134 48.3522 22.7135 49.4552 23.8665C50.5582 25.0195 50.9258 26.6265 50.5642 28.6756C50.311 30.0974 49.7685 31.3161 48.9309 32.3378C48.093 33.3593 47.0744 34.1121 45.869 34.6079C44.6635 35.1037 43.3315 35.3546 41.8669 35.3546H39.468L38.5218 40.6835H33.6758V40.6776ZM40.1732 31.352H42.4756C43.3375 31.352 44.0547 31.131 44.6213 30.6829C45.1939 30.2409 45.5435 29.6315 45.6822 28.8667C45.8207 28.0722 45.6881 27.4629 45.2723 27.0388C44.8564 26.6146 44.2115 26.3994 43.3315 26.3994H41.0532L40.1732 31.352Z" fill="#373A44"/>
<path d="M49.8513 40.6776L53.1482 22.134H61.3934C63.9309 22.134 65.703 22.8031 66.7155 24.1353C67.5472 25.2345 67.8004 26.7101 67.475 28.5562C67.2339 29.9122 66.7155 31.0652 65.9138 32.0152C65.1183 32.965 64.1117 33.6878 62.9003 34.1897L65.9138 40.6776H60.3267L57.8073 35.038H55.6916L54.6911 40.6776H49.8513ZM56.403 31.0414H59.5974C60.4171 31.0414 61.0921 30.8442 61.6165 30.4499C62.1408 30.0556 62.4663 29.506 62.5929 28.8131C62.7194 28.1081 62.5869 27.5704 62.189 27.2C61.7972 26.8297 61.1826 26.6444 60.3568 26.6444H57.1864L56.403 31.0414Z" fill="#373A44"/>
<path d="M67.1678 40.6776L70.4649 22.134H84.5203L83.7428 26.5071H74.479L73.9787 29.3148H82.3626L81.6394 33.3773H73.2554L72.731 36.3104H82.1155L81.3379 40.6835H67.1678V40.6776Z" fill="#373A44"/>
<path d="M82.3613 37.9236L85.6763 34.5065C87.1651 35.988 88.925 36.7288 90.9562 36.7288C91.5951 36.7288 92.1074 36.6153 92.4871 36.3883C92.8669 36.1612 93.0959 35.8327 93.1742 35.3966C93.2465 35.0023 93.1019 34.6737 92.7463 34.4287C92.3907 34.1779 91.6613 33.909 90.5584 33.6282C89.9919 33.4789 89.5036 33.3475 89.0878 33.222C88.6719 33.0966 88.238 32.9412 87.7799 32.75C87.3218 32.5589 86.9421 32.3618 86.6347 32.1527C86.3273 31.9436 86.038 31.6926 85.7668 31.4C85.4955 31.1072 85.2906 30.7906 85.152 30.4501C85.0194 30.1095 84.9289 29.7092 84.8928 29.2553C84.8566 28.8012 84.8868 28.2994 84.9832 27.7557C85.2967 26.0054 86.1646 24.5776 87.587 23.4724C89.0094 22.3672 90.7574 21.8175 92.8246 21.8175C95.6936 21.8175 97.9478 22.636 99.5812 24.2729L96.5013 27.9051C95.0849 26.6924 93.5659 26.083 91.9386 26.083C91.372 26.083 90.92 26.1966 90.5765 26.4236C90.239 26.6505 90.034 26.9493 89.9677 27.3197C89.8894 27.7498 90.034 28.0844 90.3896 28.3233C90.7513 28.5623 91.5047 28.8252 92.662 29.1178C93.6865 29.3688 94.5485 29.6435 95.2477 29.9423C95.9467 30.241 96.5495 30.6114 97.0738 31.0594C97.5982 31.5075 97.9418 32.0511 98.1227 32.6963C98.3034 33.3415 98.3154 34.0883 98.1587 34.9545C97.8273 36.8244 96.9232 38.3 95.4465 39.3754C93.9699 40.4506 92.1556 40.9942 90.0099 40.9942C88.4307 40.9942 86.9783 40.7314 85.6582 40.2116C84.3383 39.6979 83.2413 38.9332 82.3613 37.9236Z" fill="#373A44"/>
<path d="M97.7695 37.9236L101.085 34.5065C102.573 35.988 104.333 36.7288 106.364 36.7288C107.003 36.7288 107.516 36.6153 107.895 36.3883C108.275 36.1612 108.504 35.8327 108.582 35.3966C108.655 35.0023 108.51 34.6737 108.154 34.4287C107.799 34.1779 107.07 33.909 105.967 33.6282C105.4 33.4789 104.912 33.3475 104.496 33.222C104.08 33.0966 103.646 32.9412 103.188 32.75C102.73 32.5589 102.35 32.3618 102.043 32.1527C101.735 31.9436 101.446 31.6926 101.175 31.4C100.904 31.1072 100.699 30.7906 100.56 30.4501C100.427 30.1095 100.337 29.7092 100.301 29.2553C100.265 28.8012 100.295 28.2994 100.391 27.7557C100.705 26.0054 101.573 24.5776 102.995 23.4724C104.418 22.3672 106.165 21.8175 108.233 21.8175C111.102 21.8175 113.356 22.636 114.989 24.2729L111.909 27.9051C110.493 26.6924 108.974 26.083 107.347 26.083C106.78 26.083 106.328 26.1966 105.985 26.4236C105.647 26.6505 105.442 26.9493 105.376 27.3197C105.298 27.7498 105.442 28.0844 105.798 28.3233C106.159 28.5623 106.913 28.8252 108.07 29.1178C109.095 29.3688 109.957 29.6435 110.656 29.9423C111.355 30.241 111.964 30.6114 112.482 31.0594C113 31.5075 113.35 32.0511 113.531 32.6963C113.712 33.3415 113.724 34.0883 113.567 34.9545C113.235 36.8244 112.331 38.3 110.855 39.3754C109.378 40.4506 107.564 40.9942 105.418 40.9942C103.839 40.9942 102.386 40.7314 101.066 40.2116C99.7464 39.6979 98.6495 38.9332 97.7695 37.9236Z" fill="#373A44"/>
<path d="M107.601 17.3934C109.7 15.4885 110.095 12.5298 108.483 10.7851C106.871 9.04047 103.863 9.17044 101.764 11.0755C99.6653 12.9804 99.2703 15.9391 100.882 17.6838C102.494 19.4285 105.502 19.2984 107.601 17.3934Z" fill="#03B770"/>
</g>
<defs>
<clipPath id="clip0_4372_12928">
<rect width="115" height="41" fill="white"/>
</clipPath>
</defs>
</svg>
